# This file uses centimeters as units for non-parametric coordinates.

mtllib SM_Blanket_Folded.mtl
g default
v 2.544366 0.647204 0.000000
v -2.544366 0.647204 0.000000
v -2.518410 1.005203 1.140947
v -2.508514 1.046961 0.018175
v -2.489049 1.081148 0.000000
v -2.508514 1.115335 -0.018175
v -2.511666 0.889641 -0.764211
v -2.489049 0.911669 -0.842855
v -2.511666 0.933698 -0.921498
v -2.510517 0.570482 -0.877679
v -2.489049 0.560293 -0.967777
v -2.510517 0.550103 -1.057874
v -2.509765 0.335581 -0.376090
v -2.489049 0.303867 -0.420226
v -2.509765 0.272154 -0.464362
v -2.515729 0.294365 0.425635
v -2.489049 0.257760 0.476660
v -2.515729 0.221154 0.527685
v -2.510103 0.572561 0.756411
v -2.489049 0.570955 0.849051
v -2.510103 0.569349 0.941691
v -2.513900 0.804531 0.541541
v -2.489049 0.836449 0.603127
v -2.513900 0.868368 0.664713
v -2.510517 0.820093 0.031501
v -2.489049 0.854852 0.000000
v -2.510517 0.889610 -0.031501
v -2.510574 0.727776 -0.214153
v -2.489049 0.741689 -0.301124
v -2.510574 0.755601 -0.388096
v -2.510517 0.637444 -0.205876
v -2.489049 0.621153 -0.290080
v -2.510517 0.604863 -0.374284
v -2.508771 0.593292 -0.070705
v -2.489049 0.560904 -0.105626
v -2.508771 0.528516 -0.140548
v -2.519239 0.587986 0.051851
v -2.489049 0.551247 0.117447
v -2.519239 0.514507 0.183043
v -2.489049 0.632205 0.167017
v -2.507290 0.624706 0.250517
v -2.507290 0.639704 0.083517
v 2.518410 1.005203 1.140947
v 2.508514 1.115335 -0.018175
v 2.489049 1.081148 0.000000
v 2.508514 1.046961 0.018175
v 2.511666 0.933698 -0.921498
v 2.489049 0.911669 -0.842855
v 2.511666 0.889641 -0.764211
v 2.510517 0.550103 -1.057874
v 2.489049 0.560293 -0.967777
v 2.510517 0.570482 -0.877679
v 2.509765 0.272154 -0.464362
v 2.489049 0.303867 -0.420226
v 2.509765 0.335581 -0.376090
v 2.515729 0.221154 0.527685
v 2.489049 0.257760 0.476660
v 2.515729 0.294365 0.425635
v 2.510103 0.569349 0.941691
v 2.489049 0.570955 0.849051
v 2.510103 0.572561 0.756411
v 2.513900 0.868368 0.664713
v 2.489049 0.836449 0.603127
v 2.513900 0.804531 0.541541
v 2.510517 0.889610 -0.031501
v 2.489049 0.854852 0.000000
v 2.510517 0.820093 0.031501
v 2.510574 0.755601 -0.388096
v 2.489049 0.741689 -0.301124
v 2.510574 0.727776 -0.214153
v 2.510517 0.604863 -0.374284
v 2.489049 0.621153 -0.290080
v 2.510517 0.637444 -0.205876
v 2.508771 0.528516 -0.140548
v 2.489049 0.560904 -0.105626
v 2.508771 0.593292 -0.070705
v 2.519239 0.514507 0.183043
v 2.489049 0.551246 0.117447
v 2.519239 0.587986 0.051851
v 2.489049 0.632205 0.167017
v 2.507290 0.639704 0.083517
v 2.507290 0.624706 0.250517
v 2.463887 1.063703 -1.330955
v 2.562886 1.047285 -1.275311
v 2.464517 0.497038 -1.659673
v 2.563185 0.504278 -1.590970
v 2.464020 0.042608 -0.738624
v 2.562568 0.071213 -0.705166
v 2.463780 0.042608 0.738624
v 2.562183 0.071368 0.705081
v 2.464783 0.497038 1.659673
v 2.563367 0.505646 1.591392
v 2.515276 1.010284 1.299398
v 2.414581 1.022175 1.355045
v 2.464400 1.315893 0.000000
v 2.561193 1.284015 -0.001055
v -2.463887 1.063703 -1.330955
v -2.562886 1.047285 -1.275311
v -2.464517 0.497038 -1.659673
v -2.563185 0.504278 -1.590970
v -2.464474 0.042608 -0.738624
v -2.562576 0.072519 -0.707901
v -2.463780 0.042608 0.738624
v -2.562183 0.071368 0.705081
v -2.465075 0.497038 1.659673
v -2.563296 0.505570 1.591740
v -2.515276 1.010284 1.299398
v -2.414581 1.022175 1.355045
v -2.464400 1.315893 0.000000
v -2.561280 1.284292 -0.001027
v -2.402518 1.103412 1.215142
v -2.501320 1.079142 1.172002
v 2.501320 1.079142 1.172002
v 2.402518 1.103412 1.215142
v -2.397368 1.055533 1.235960
v 2.397368 1.055533 1.235960
v 2.399549 1.071215 1.347638
v 2.496913 1.043339 1.315343
v -2.496913 1.043339 1.315343
v -2.399549 1.071215 1.347638
v 2.489049 1.030589 1.311081
v 2.496052 1.041735 1.316787
v -2.496052 1.041735 1.316787
v -2.489049 1.030589 1.311081
vt 0.497644 0.863306
vt 0.486984 0.850466
vt 0.485703 0.838825
vt 0.541740 0.840758
vt 0.519452 0.864092
vt 0.500000 0.843750
vt 0.596511 0.842024
vt 0.553394 0.780609
vt 0.558530 0.916343
vt 0.558523 0.846742
vt 0.481478 0.927121
vt 0.526170 0.880615
vt 0.424767 0.879475
vt 0.489778 0.879303
vt 0.414817 0.803319
vt 0.471346 0.857101
vt 0.481980 0.771898
vt 0.467964 0.826363
vt 0.558523 0.153258
vt 0.596511 0.157976
vt 0.526170 0.119385
vt 0.558530 0.083657
vt 0.489778 0.120697
vt 0.481478 0.072879
vt 0.471346 0.142899
vt 0.424767 0.120525
vt 0.467964 0.173637
vt 0.414817 0.196681
vt 0.494569 0.180047
vt 0.537982 0.207691
vt 0.541740 0.159242
vt 0.519452 0.135908
vt 0.497644 0.136694
vt 0.486984 0.149534
vt 0.500000 0.156250
vt 0.485703 0.161175
vt 0.494569 0.819953
vt 0.537982 0.792309
vt 0.481980 0.228102
vt 0.498189 0.835817
vt 0.498189 0.164183
vt 0.563848 0.923813
vt 0.479018 0.935679
vt 0.417111 0.883667
vt 0.405979 0.798472
vt 0.481592 0.763098
vt 0.545688 0.786459
vt 0.550131 0.843750
vt 0.522811 0.872354
vt 0.493711 0.871305
vt 0.479165 0.853783
vt 0.476834 0.832594
vt 0.496379 0.827885
vt 0.563848 0.076187
vt 0.479018 0.064321
vt 0.417111 0.116333
vt 0.405979 0.201528
vt 0.481592 0.236902
vt 0.545688 0.213541
vt 0.550131 0.156250
vt 0.522811 0.127646
vt 0.493711 0.128695
vt 0.479165 0.146217
vt 0.476834 0.167406
vt 0.496379 0.172115
vt 0.604764 0.156250
vt 0.554569 0.684608
vt 0.554572 0.315298
vt 0.554606 0.315429
vt 0.555529 0.685820
vt 0.375000 0.313313
vt 0.375154 0.312614
vt 0.410576 0.312592
vt 0.624853 0.312614
vt 0.589596 0.312737
vt 0.410858 0.312592
vt 0.446208 0.312637
vt 0.446642 0.312637
vt 0.481927 0.312665
vt 0.482370 0.312665
vt 0.517788 0.312578
vt 0.518078 0.312554
vt 0.550954 0.312500
vt 0.587837 0.280515
vt 0.595196 0.270953
vt 0.656199 0.156248
vt 0.602552 0.267648
vt 0.625000 0.686687
vt 0.624853 0.687386
vt 0.589588 0.687269
vt 0.375154 0.687386
vt 0.410576 0.687408
vt 0.410858 0.687408
vt 0.446100 0.687364
vt 0.446574 0.687364
vt 0.481927 0.687335
vt 0.482370 0.687335
vt 0.517790 0.687416
vt 0.518071 0.687439
vt 0.550954 0.687500
vt 0.587837 0.719483
vt 0.595208 0.728940
vt 0.656199 0.843752
vt 0.601138 0.731979
vt 0.602552 0.732352
vt 0.556679 0.687241
vt 0.556679 0.686481
vt 0.556174 0.313214
vt 0.555642 0.313964
vt 0.555529 0.314125
vt 0.554606 0.684470
vt 0.410714 0.313268
vt 0.375000 0.686687
vt 0.446429 0.313303
vt 0.410714 0.686732
vt 0.482143 0.313320
vt 0.446429 0.686729
vt 0.517857 0.313249
vt 0.482143 0.686680
vt 0.550954 0.313201
vt 0.517857 0.686771
vt 0.625000 0.313313
vt 0.589286 0.686724
vt 0.596589 0.035108
vt 0.476558 0.055762
vt 0.465494 0.005123
vt 0.409454 0.112140
vt 0.360942 0.089266
vt 0.397142 0.206375
vt 0.360980 0.223226
vt 0.481204 0.245702
vt 0.601134 0.267988
vt 0.613018 0.154524
vt 0.653741 0.156150
vt 0.569166 0.068717
vt 0.653808 0.843848
vt 0.596589 0.964892
vt 0.613018 0.845476
vt 0.465495 0.994877
vt 0.569166 0.931283
vt 0.361258 0.910994
vt 0.476558 0.944238
vt 0.360980 0.776774
vt 0.409454 0.887860
vt 0.465806 0.692550
vt 0.397142 0.793625
vt 0.587656 0.720320
vt 0.481204 0.754299
vt 0.586429 0.264629
vt 0.465825 0.307417
vt 0.553394 0.219391
vt 0.586429 0.735371
vt 0.587656 0.279680
vt 0.550954 0.686799
vt 0.556679 0.686695
vt 0.589286 0.313276
vt 0.556679 0.313305
vt 0.556679 0.313519
vt 0.556174 0.686761
vt 0.555642 0.685985
vt 0.604764 0.843750
vn 0.000000 -0.722296 0.691584
vn 0.000000 -0.722296 0.691584
vn 0.000000 -0.722296 0.691584
vn 0.000000 -0.722296 0.691584
vn 0.000000 -0.722296 0.691584
vn 0.000000 -0.722296 0.691584
vn -0.978715 0.203632 -0.025504
vn -0.045961 0.966442 0.252738
vn -0.676928 0.735999 -0.008601
vn -0.939188 0.343380 0.003981
vn -0.959746 0.228197 -0.163752
vn -0.964464 -0.195580 -0.177647
vn -0.999245 0.036175 -0.014207
vn -0.859127 -0.502866 -0.095011
vn -0.905840 -0.415634 0.081868
vn -0.987931 -0.147533 0.047185
vn -0.996193 0.069532 0.052582
vn -0.940893 0.337986 -0.022042
vn -0.998574 -0.052811 0.007791
vn -0.999218 -0.016403 -0.035985
vn -0.988887 0.137687 -0.056078
vn -0.999910 -0.005968 0.012044
vn -0.992765 -0.077541 -0.091677
vn -0.999914 0.003330 0.012718
vn -0.987230 -0.157531 -0.023669
vn -0.999520 0.030882 -0.002320
vn -0.988039 -0.152738 0.021216
vn -0.999689 0.022265 -0.011258
vn -0.990341 -0.053677 0.127841
vn -0.998027 -0.060685 0.016123
vn 0.939188 0.343381 0.003981
vn 0.978695 0.203722 -0.025556
vn 0.999217 -0.016385 -0.036012
vn 0.998574 -0.052810 0.007791
vn 0.988887 0.137688 -0.056078
vn 0.999910 -0.005968 0.012044
vn 0.992765 -0.077541 -0.091677
vn 0.999914 0.003330 0.012718
vn 0.987230 -0.157532 -0.023669
vn 0.999520 0.030882 -0.002320
vn 0.988039 -0.152739 0.021216
vn 0.999689 0.022265 -0.011258
vn 0.990341 -0.053677 0.127841
vn 0.998027 -0.060685 0.016123
vn 0.940893 0.337987 -0.022042
vn 0.996193 0.069534 0.052582
vn 0.999245 0.036175 -0.014207
vn 0.959746 0.228198 -0.163752
vn 0.964464 -0.195579 -0.177647
vn 0.859125 -0.502868 -0.095011
vn 0.905840 -0.415633 0.081868
vn 0.987931 -0.147532 0.047185
vn -0.992137 -0.123976 0.017156
vn 0.992137 -0.123975 0.017156
vn -0.957118 0.201365 -0.208272
vn -0.544454 -0.838578 0.018915
vn -0.913636 -0.404513 0.040483
vn -0.976339 -0.196940 0.089310
vn -0.921368 -0.358213 0.150881
vn -0.971381 -0.072533 -0.226180
vn -0.992069 0.074683 0.101101
vn -0.962677 0.169807 0.210758
vn -0.891815 -0.433056 -0.130875
vn -0.964887 0.259531 0.040452
vn -0.852284 0.518678 0.067720
vn -0.914727 -0.372380 0.156868
vn -0.970357 0.238281 -0.040363
vn -0.870547 0.488746 -0.057233
vn -0.968312 -0.044741 0.245702
vn -0.995070 0.073472 -0.066621
vn -0.968048 0.063135 -0.242687
vn -0.933620 0.304447 0.188856
vn -0.884634 -0.456119 -0.096838
vn -0.872044 0.482288 -0.083293
vn -0.848620 -0.528356 0.026157
vn -0.964773 0.153134 -0.213921
vn -0.942464 -0.275861 0.188843
vn -0.967647 -0.122255 -0.220712
vn -0.949150 0.252101 0.188570
vn -0.871154 -0.478270 -0.111123
vn -0.840364 0.539760 0.049483
vn -0.947904 -0.255967 0.189628
vn -0.874459 0.479542 -0.073212
vn 0.913595 -0.404604 0.040491
vn 0.544454 -0.838578 0.018915
vn 0.921368 -0.358213 0.150881
vn 0.976349 -0.196883 0.089327
vn 0.676927 0.736000 -0.008600
vn 0.957118 0.201365 -0.208272
vn 0.962677 0.169805 0.210758
vn 0.992064 0.074773 0.101080
vn 0.971381 -0.072534 -0.226180
vn 0.852284 0.518677 0.067720
vn 0.965104 0.258717 0.040501
vn 0.891815 -0.433057 -0.130875
vn 0.870546 0.488747 -0.057233
vn 0.970464 0.237832 -0.040440
vn 0.914727 -0.372381 0.156868
vn 0.968048 0.063136 -0.242687
vn 0.995060 0.073523 -0.066710
vn 0.968312 -0.044740 0.245702
vn 0.884633 -0.456121 -0.096838
vn 0.933619 0.304450 0.188856
vn 0.848618 -0.528359 0.026157
vn 0.872043 0.482290 -0.083293
vn 0.942464 -0.275864 0.188843
vn 0.964773 0.153134 -0.213921
vn 0.949149 0.252104 0.188570
vn 0.967646 -0.122256 -0.220712
vn 0.840362 0.539762 0.049483
vn 0.871154 -0.478270 -0.111124
vn 0.874459 0.479542 -0.073212
vn 0.947905 -0.255965 0.189628
vn 0.000000 -0.949048 -0.315133
vn 0.000000 -0.949048 -0.315133
vn 0.000000 -0.949048 -0.315133
vn 0.000000 -0.949048 -0.315133
vn 0.045961 0.966442 0.252738
vn 0.011731 0.501759 -0.864928
vn 0.914659 0.385992 -0.120036
vn 0.924005 -0.220031 -0.312733
vn 0.008574 0.501771 -0.864958
vn 0.003958 0.982515 -0.186141
vn 0.005965 0.999795 -0.019335
vn 0.886292 0.462842 0.016255
vn 0.005138 -0.896788 -0.442431
vn 0.936898 -0.348311 -0.030040
vn 0.006201 -0.982367 -0.186861
vn 0.933505 -0.357281 0.030309
vn 0.006254 -0.982364 0.186875
vn 0.941261 -0.175916 0.288240
vn 0.005268 -0.896786 0.442433
vn 0.009305 0.502413 0.864578
vn 0.991927 0.095392 0.083554
vn 0.010701 0.502505 0.864508
vn 0.002384 0.963020 0.269419
vn 0.323313 0.943542 0.072095
vn 0.004948 0.983909 0.178603
vn 0.884252 0.405345 0.231934
vn -0.003940 0.982515 -0.186143
vn -0.914556 0.386206 -0.120133
vn -0.886285 0.462854 0.016271
vn -0.005941 0.999795 -0.019337
vn -0.011731 0.501759 -0.864928
vn -0.008574 0.501771 -0.864958
vn -0.924341 -0.218961 -0.312490
vn -0.005125 -0.896787 -0.442432
vn -0.006259 -0.982382 -0.186780
vn -0.937701 -0.346036 -0.031246
vn -0.006306 -0.982365 0.186867
vn -0.933962 -0.356107 0.030046
vn -0.005257 -0.896787 0.442431
vn -0.941398 -0.175709 0.287916
vn -0.009294 0.502417 0.864575
vn -0.010671 0.502508 0.864507
vn -0.991963 0.095215 0.083327
vn -0.323313 0.943542 0.072095
vn -0.002384 0.963020 0.269419
vn -0.883747 0.406214 0.232340
vn -0.004930 0.983909 0.178604
vn -0.332842 0.913465 0.234089
vn -0.006046 0.971652 0.236337
vn 0.006046 0.971652 0.236337
vn 0.332842 0.913465 0.234089
vn 0.000000 -0.455738 0.890114
vn 0.000000 -0.455738 0.890114
vn 0.000000 -0.455738 0.890114
vn 0.000000 -0.455738 0.890114
vn 0.391180 -0.919320 -0.042774
vn -0.391180 -0.919320 -0.042774
vn -0.138196 -0.938821 -0.315463
vn -0.138196 -0.938821 -0.315463
vn -0.138196 -0.938821 -0.315463
vn 0.138196 -0.938821 -0.315463
vn 0.138196 -0.938821 -0.315463
vn 0.138196 -0.938821 -0.315463
s off
g SM_Blanket_Folded
usemtl initialShadingGroup
f 123/70/1 122/110/2 118/109/3 117/158/4 120/107/5 119/160/6
s 1
f 3/152/7 115/102/8 5/161/9 4/7/10
f 28/5/11 31/1/12 2/6/13
f 31/1/12 34/2/14 2/6/13
f 34/2/14 37/3/15 2/6/13
f 37/3/15 42/40/16 2/6/13
f 22/38/17 25/4/18 2/6/13
f 25/4/18 28/5/11 2/6/13
f 3/152/7 4/7/10 27/10/19 24/8/20
f 4/7/10 7/9/21 30/12/22 27/10/19
f 7/9/21 10/11/23 33/14/24 30/12/22
f 10/11/23 13/13/25 36/16/26 33/14/24
f 13/13/25 16/15/27 39/18/28 36/16/26
f 16/15/27 19/17/29 41/37/30 39/18/28
f 46/20/31 43/149/32 62/151/33 65/19/34
f 49/22/35 46/20/31 65/19/34 68/21/36
f 52/24/37 49/22/35 68/21/36 71/23/38
f 55/26/39 52/24/37 71/23/38 74/25/40
f 58/28/41 55/26/39 74/25/40 77/27/42
f 61/39/43 58/28/41 77/27/42 82/29/44
f 67/31/45 64/30/46 1/35/47
f 70/32/48 67/31/45 1/35/47
f 73/33/49 70/32/48 1/35/47
f 76/34/50 73/33/49 1/35/47
f 79/36/51 76/34/50 1/35/47
f 81/41/52 79/36/51 1/35/47
f 40/53/53 41/37/30 19/17/29 22/38/17 2/6/13 42/40/16
f 80/65/54 81/41/52 1/35/47 64/30/46 61/39/43 82/29/44
f 4/7/10 5/161/9 8/42/55 7/9/21
f 5/161/56 6/138/57 9/140/58 8/42/59
f 7/9/21 8/42/55 11/43/60 10/11/23
f 8/42/59 9/140/58 12/142/61 11/43/62
f 10/11/23 11/43/60 14/44/63 13/13/25
f 11/43/62 12/142/61 15/144/64 14/44/65
f 13/13/25 14/44/63 17/45/66 16/15/27
f 14/44/65 15/144/64 18/146/67 17/45/68
f 16/15/27 17/45/66 20/46/69 19/17/29
f 17/45/68 18/146/67 21/148/70 20/46/71
f 19/17/29 20/46/69 23/47/72 22/38/17
f 20/46/71 21/148/70 24/8/20 23/47/73
f 22/38/17 23/47/72 26/48/74 25/4/18
f 23/47/73 24/8/20 27/10/19 26/48/75
f 25/4/18 26/48/74 29/49/76 28/5/11
f 26/48/75 27/10/19 30/12/22 29/49/77
f 28/5/11 29/49/76 32/50/78 31/1/12
f 29/49/77 30/12/22 33/14/24 32/50/79
f 31/1/12 32/50/78 35/51/80 34/2/14
f 32/50/79 33/14/24 36/16/26 35/51/81
f 34/2/14 35/51/80 38/52/82 37/3/15
f 35/51/81 36/16/26 39/18/28 38/52/83
f 37/3/15 38/52/82 40/53/53 42/40/16
f 38/52/83 39/18/28 41/37/30 40/53/53
f 44/133/84 45/66/85 48/54/86 47/135/87
f 45/66/88 46/20/31 49/22/35 48/54/89
f 47/135/87 48/54/86 51/55/90 50/125/91
f 48/54/89 49/22/35 52/24/37 51/55/92
f 50/125/91 51/55/90 54/56/93 53/127/94
f 51/55/92 52/24/37 55/26/39 54/56/95
f 53/127/94 54/56/93 57/57/96 56/129/97
f 54/56/95 55/26/39 58/28/41 57/57/98
f 56/129/97 57/57/96 60/58/99 59/131/100
f 57/57/98 58/28/41 61/39/43 60/58/101
f 59/131/100 60/58/99 63/59/102 62/151/33
f 60/58/101 61/39/43 64/30/46 63/59/103
f 62/151/33 63/59/102 66/60/104 65/19/34
f 63/59/103 64/30/46 67/31/45 66/60/105
f 65/19/34 66/60/104 69/61/106 68/21/36
f 66/60/105 67/31/45 70/32/48 69/61/107
f 68/21/36 69/61/106 72/62/108 71/23/38
f 69/61/107 70/32/48 73/33/49 72/62/109
f 71/23/38 72/62/108 75/63/110 74/25/40
f 72/62/109 73/33/49 76/34/50 75/63/111
f 74/25/40 75/63/110 78/64/112 77/27/42
f 75/63/111 76/34/50 79/36/51 78/64/113
f 77/27/42 78/64/112 80/65/54 82/29/44
f 78/64/113 79/36/51 81/41/52 80/65/54
s off
f 115/67/114 116/68/115 121/69/116 124/111/117
s 1
f 116/85/118 43/149/32 46/20/31 45/66/88
f 83/71/119 84/72/120 86/73/121 85/112/122
f 84/74/120 83/122/123 95/156/124 96/75/125
f 85/112/126 86/76/121 88/77/127 87/114/128
f 87/114/128 88/78/127 90/79/129 89/116/130
f 89/116/130 90/80/129 92/81/131 91/118/132
f 91/118/133 92/82/131 93/83/134 94/120/135
f 94/84/136 93/153/137 116/85/118
f 96/134/125 95/86/124 114/87/138 113/132/139
f 97/88/140 98/89/141 110/90/142 109/123/143
f 98/91/141 97/113/144 99/115/145 100/92/146
f 100/93/146 99/115/147 101/117/148 102/94/149
f 102/95/149 101/117/148 103/119/150 104/96/151
f 104/97/151 103/119/150 105/121/152 106/98/153
f 106/99/153 105/121/154 108/154/155 107/100/156
f 107/147/157 108/101/158 115/102/8
f 109/103/143 110/136/142 112/104/159 111/105/160
f 111/155/160 112/106/159 119/160/161 120/107/162
f 113/108/139 114/157/138 117/158/163 118/109/164
s off
f 121/69/165 122/110/166 123/70/167 124/111/168
s 1
f 83/71/119 85/112/122 99/115/145 97/113/144
f 85/112/126 87/114/128 101/117/148 99/115/147
f 87/114/128 89/116/130 103/119/150 101/117/148
f 89/116/130 91/118/132 105/121/152 103/119/150
f 91/118/133 94/120/135 108/154/155 105/121/154
f 95/156/124 83/122/123 97/88/140 109/123/143
f 113/132/139 116/85/169 45/66/85 44/133/84
f 86/126/121 84/124/120 47/135/87 50/125/91
f 88/128/127 86/126/121 50/125/91 53/127/94
f 90/130/129 88/128/127 53/127/94 56/129/97
f 92/150/131 90/130/129 56/129/97 59/131/100
f 96/134/125 113/132/139 44/133/84
f 84/124/120 96/134/125 44/133/84 47/135/87
f 6/138/57 112/104/159 110/136/142
f 110/136/142 98/137/141 9/140/58 6/138/57
f 98/137/141 100/139/146 12/142/61 9/140/58
f 100/139/146 102/141/149 15/144/64 12/142/61
f 102/141/149 104/143/151 18/146/67 15/144/64
f 104/143/151 106/145/153 21/148/70 18/146/67
f 106/145/153 107/147/156 3/152/7 24/8/20 21/148/70
f 43/149/32 93/153/134 92/150/131 59/131/100 62/151/33
f 107/147/157 115/102/8 3/152/7
f 43/149/32 116/85/118 93/153/137
f 108/154/158 94/120/136 116/68/118 115/67/8
f 111/155/160 114/157/138 95/156/124 109/123/143
f 114/157/138 111/155/160 120/107/162 117/158/163
f 112/159/159 115/67/170 124/111/171 123/70/172 119/160/173
f 115/102/170 112/104/159 6/138/57 5/161/56
f 116/68/169 113/108/139 118/109/174 122/110/175 121/69/176
