# This file uses centimeters as units for non-parametric coordinates.

mtllib SM_DogBed_Small.mtl
g default
v -15.550206 0.000000 0.000000
v -15.000000 0.000000 0.000000
v -15.550206 -0.000000 -0.501182
v -15.000000 -0.000000 -0.501182
v -15.550206 1.309160 -0.513302
v -15.550206 1.023947 -0.877289
v -15.000000 1.023947 -0.877289
v -15.000000 1.309160 -0.513302
v -15.550206 2.443549 -1.787725
v -15.550206 2.028648 -2.038317
v -15.000000 2.028648 -2.038317
v -15.000000 2.443549 -1.787726
v -15.550206 2.443549 -3.219490
v -15.550206 2.028648 -3.219490
v -15.000000 2.028648 -3.219490
v -15.000000 2.443549 -3.219490
v -15.000000 2.028648 -8.048722
v -15.550206 2.028648 -8.048722
v -15.550206 2.443549 -8.048722
v -15.000000 2.443549 -8.048722
v -15.550206 0.000000 -16.097445
v -15.000000 0.000000 -16.097445
v -15.550206 -0.000000 -15.596262
v -15.000000 -0.000000 -15.596262
v -15.550206 1.309160 -15.584143
v -15.550206 1.023947 -15.220156
v -15.000000 1.023947 -15.220156
v -15.000000 1.309160 -15.584143
v -15.550206 2.443549 -14.309719
v -15.550206 2.028648 -14.059128
v -15.000000 2.028648 -14.059128
v -15.000000 2.443549 -14.309719
v -15.550206 2.443549 -12.877954
v -15.550206 2.028648 -12.877954
v -15.000000 2.028648 -12.877954
v -15.000000 2.443549 -12.877954
v -0.550206 0.000000 0.000000
v 0.000000 0.000000 0.000000
v -0.550206 -0.000000 -0.501182
v 0.000000 -0.000000 -0.501182
v -0.550206 1.309160 -0.513302
v -0.550206 1.023947 -0.877289
v 0.000000 1.023947 -0.877289
v 0.000000 1.309160 -0.513302
v -0.550206 2.443549 -1.787725
v -0.550206 2.028648 -2.038317
v 0.000000 2.028648 -2.038317
v 0.000000 2.443549 -1.787726
v -0.550206 2.443549 -3.219490
v -0.550206 2.028648 -3.219490
v 0.000000 2.028648 -3.219490
v 0.000000 2.443549 -3.219490
v 0.000000 2.028648 -8.048722
v -0.550206 2.028648 -8.048722
v -0.550206 2.443549 -8.048722
v 0.000000 2.443549 -8.048722
v -0.550206 0.000000 -16.097445
v 0.000000 0.000000 -16.097445
v -0.550206 -0.000000 -15.596262
v 0.000000 -0.000000 -15.596262
v -0.550206 1.309160 -15.584143
v -0.550206 1.023947 -15.220156
v 0.000000 1.023947 -15.220156
v 0.000000 1.309160 -15.584143
v -0.550206 2.443549 -14.309719
v -0.550206 2.028648 -14.059128
v 0.000000 2.028648 -14.059128
v 0.000000 2.443549 -14.309719
v -0.550206 2.443549 -12.877954
v -0.550206 2.028648 -12.877954
v 0.000000 2.028648 -12.877954
v 0.000000 2.443549 -12.877954
v -15.579706 2.540701 -2.060927
v -15.609045 2.469868 -2.060927
v -15.508873 2.570041 -2.060927
v -15.609045 2.469868 -14.036517
v -15.579706 2.540701 -14.036517
v -15.508873 2.570041 -14.036517
v -14.970503 2.540701 -2.060927
v -15.041334 2.570041 -2.060927
v -14.941162 2.469868 -2.060927
v -14.941162 2.469868 -14.036517
v -15.041334 2.570041 -14.036517
v -14.970503 2.540701 -14.036517
v -15.579706 1.931497 -2.060927
v -15.508873 1.902157 -2.060927
v -15.609045 2.002329 -2.060927
v -15.579706 1.931497 -14.036517
v -15.609045 2.002329 -14.036517
v -15.508873 1.902157 -14.036517
v -14.970503 1.931497 -2.060927
v -14.941162 2.218102 -2.060927
v -15.041334 1.902157 -2.060927
v -14.970503 1.931497 -14.036517
v -15.041334 1.902157 -14.036517
v -14.941162 2.218102 -14.036517
v 0.029500 2.540701 -14.036517
v 0.058838 2.469868 -14.036517
v -0.041333 2.570041 -14.036517
v 0.058838 2.469868 -2.060927
v 0.029500 2.540701 -2.060927
v -0.041333 2.570041 -2.060927
v -0.579704 2.540701 -14.036517
v -0.508873 2.570041 -14.036517
v -0.609045 2.469868 -14.036517
v -0.609045 2.469868 -2.060927
v -0.508873 2.570041 -2.060927
v -0.579704 2.540701 -2.060927
v 0.029500 1.931497 -14.036517
v -0.041333 1.902157 -14.036517
v 0.058839 2.002329 -14.036517
v 0.029500 1.931497 -2.060927
v 0.058839 2.002329 -2.060927
v -0.041333 1.902157 -2.060927
v -0.579704 1.931497 -14.036517
v -0.609045 2.218102 -14.036517
v -0.508873 1.902157 -14.036517
v -0.579704 1.931497 -2.060927
v -0.508873 1.902157 -2.060927
v -0.609045 2.218102 -2.060927
v -1.415679 2.325542 -2.673778
v -1.242147 2.335444 -2.487854
v -14.308059 2.335444 -2.487854
v -14.134527 2.325542 -2.673778
v -1.411830 2.325542 -13.428352
v -1.242123 2.335226 -13.610180
v -14.134527 2.325542 -13.423666
v -14.308059 2.335444 -13.609591
vt 0.375000 0.500000
vt 0.625000 0.500000
vt 0.375000 0.750000
vt 0.625000 0.750000
vt 0.875000 0.000000
vt 0.875000 0.250000
vt 0.125000 0.000000
vt 0.125000 0.250000
vt 0.145833 0.250000
vt 0.375000 0.479167
vt 0.145833 0.000000
vt 0.375000 0.770833
vt 0.625000 0.770833
vt 0.854167 0.000000
vt 0.625000 0.479167
vt 0.854167 0.250000
vt 0.166667 0.250000
vt 0.375000 0.458333
vt 0.166667 0.000000
vt 0.375000 0.791667
vt 0.625000 0.791667
vt 0.833333 0.000000
vt 0.625000 0.458333
vt 0.833333 0.250000
vt 0.187500 0.250000
vt 0.375000 0.437500
vt 0.187500 0.000000
vt 0.375000 0.812500
vt 0.625000 0.812500
vt 0.812500 0.000000
vt 0.625000 0.437500
vt 0.812500 0.250000
vt 0.625000 0.875000
vt 0.750000 0.000000
vt 0.250000 0.000000
vt 0.375000 0.875000
vt 0.250000 0.250000
vt 0.375000 0.375000
vt 0.625000 0.375000
vt 0.750000 0.250000
vt 0.375000 0.500000
vt 0.625000 0.500000
vt 0.625000 0.750000
vt 0.375000 0.750000
vt 0.187500 0.250000
vt 0.187500 0.000000
vt 0.250000 0.000000
vt 0.250000 0.250000
vt 0.375000 0.812500
vt 0.625000 0.812500
vt 0.625000 0.875000
vt 0.375000 0.875000
vt 0.750000 0.000000
vt 0.812500 0.000000
vt 0.812500 0.250000
vt 0.750000 0.250000
vt 0.625000 0.437500
vt 0.375000 0.437500
vt 0.375000 0.375000
vt 0.625000 0.375000
vt 0.125000 0.000000
vt 0.145833 0.000000
vt 0.145833 0.250000
vt 0.125000 0.250000
vt 0.625000 0.770833
vt 0.375000 0.770833
vt 0.854167 0.250000
vt 0.854167 0.000000
vt 0.875000 0.000000
vt 0.875000 0.250000
vt 0.375000 0.479167
vt 0.625000 0.479167
vt 0.166667 0.000000
vt 0.166667 0.250000
vt 0.625000 0.791667
vt 0.375000 0.791667
vt 0.833333 0.250000
vt 0.833333 0.000000
vt 0.375000 0.458333
vt 0.625000 0.458333
vt 0.375000 0.500000
vt 0.625000 0.500000
vt 0.625000 0.750000
vt 0.375000 0.750000
vt 0.187500 0.250000
vt 0.187500 0.000000
vt 0.250000 0.000000
vt 0.250000 0.250000
vt 0.375000 0.812500
vt 0.625000 0.812500
vt 0.625000 0.875000
vt 0.375000 0.875000
vt 0.750000 0.000000
vt 0.812500 0.000000
vt 0.812500 0.250000
vt 0.750000 0.250000
vt 0.625000 0.437500
vt 0.375000 0.437500
vt 0.375000 0.375000
vt 0.625000 0.375000
vt 0.125000 0.000000
vt 0.145833 0.000000
vt 0.145833 0.250000
vt 0.125000 0.250000
vt 0.625000 0.770833
vt 0.375000 0.770833
vt 0.854167 0.250000
vt 0.854167 0.000000
vt 0.875000 0.000000
vt 0.875000 0.250000
vt 0.375000 0.479167
vt 0.625000 0.479167
vt 0.166667 0.000000
vt 0.166667 0.250000
vt 0.625000 0.791667
vt 0.375000 0.791667
vt 0.833333 0.250000
vt 0.833333 0.000000
vt 0.375000 0.458333
vt 0.625000 0.458333
vt 0.375000 0.500000
vt 0.375000 0.750000
vt 0.625000 0.750000
vt 0.625000 0.500000
vt 0.187500 0.250000
vt 0.250000 0.250000
vt 0.250000 0.000000
vt 0.187500 0.000000
vt 0.375000 0.812500
vt 0.375000 0.875000
vt 0.625000 0.875000
vt 0.625000 0.812500
vt 0.750000 0.000000
vt 0.750000 0.250000
vt 0.812500 0.250000
vt 0.812500 0.000000
vt 0.625000 0.437500
vt 0.625000 0.375000
vt 0.375000 0.375000
vt 0.375000 0.437500
vt 0.125000 0.000000
vt 0.125000 0.250000
vt 0.145833 0.250000
vt 0.145833 0.000000
vt 0.375000 0.770833
vt 0.625000 0.770833
vt 0.854167 0.250000
vt 0.875000 0.250000
vt 0.875000 0.000000
vt 0.854167 0.000000
vt 0.375000 0.479167
vt 0.625000 0.479167
vt 0.166667 0.250000
vt 0.166667 0.000000
vt 0.375000 0.791667
vt 0.625000 0.791667
vt 0.833333 0.250000
vt 0.833333 0.000000
vt 0.375000 0.458333
vt 0.625000 0.458333
vt 0.412496 0.500000
vt 0.412496 0.250000
vt 0.587504 0.250000
vt 0.587504 0.500000
vt 0.412496 1.000000
vt 0.412496 0.750000
vt 0.587504 0.750000
vt 0.587504 1.000000
vt 0.125000 0.037496
vt 0.375000 0.037496
vt 0.375000 0.212504
vt 0.125000 0.212504
vt 0.375000 0.250000
vt 0.125000 0.250000
vt 0.375000 0.500000
vt 0.625000 0.250000
vt 0.625000 0.500000
vt 0.625000 0.212504
vt 0.875000 0.212504
vt 0.875000 0.250000
vt 0.375000 1.000000
vt 0.375000 0.750000
vt 0.375000 0.000000
vt 0.125000 0.000000
vt 0.625000 0.037496
vt 0.625000 0.000000
vt 0.875000 0.000000
vt 0.875000 0.037496
vt 0.625000 1.000000
vt 0.625000 0.750000
vt 0.412496 0.000000
vt 0.587504 0.000000
vt 0.375000 0.712504
vt 0.375000 0.537496
vt 0.625000 0.537496
vt 0.625000 0.712504
vt 0.625000 0.212504
vt 0.625000 0.037496
vt 0.875000 0.037496
vt 0.875000 0.212504
vt 0.412496 0.500000
vt 0.412496 0.250000
vt 0.587504 0.250000
vt 0.587504 0.500000
vt 0.412496 1.000000
vt 0.412496 0.750000
vt 0.587504 0.750000
vt 0.587504 1.000000
vt 0.125000 0.037496
vt 0.375000 0.037496
vt 0.375000 0.212504
vt 0.125000 0.212504
vt 0.375000 0.250000
vt 0.125000 0.250000
vt 0.375000 0.500000
vt 0.625000 0.250000
vt 0.625000 0.500000
vt 0.875000 0.250000
vt 0.375000 1.000000
vt 0.375000 0.750000
vt 0.375000 0.000000
vt 0.125000 0.000000
vt 0.625000 0.000000
vt 0.875000 0.000000
vt 0.625000 1.000000
vt 0.625000 0.750000
vt 0.412496 0.000000
vt 0.587504 0.000000
vt 0.375000 0.712504
vt 0.375000 0.537496
vt 0.625000 0.537496
vt 0.625000 0.712504
vt 0.875000 0.212504
vt 0.625000 0.212504
vt 0.873584 0.212504
vt 0.633102 0.212504
vt 0.632923 0.212504
vt 0.873584 0.212504
vt 0.625000 0.212504
vt 0.875000 0.212504
vn 0.000000 -1.000000 0.000001
vn 0.000000 -1.000000 0.000001
vn 0.000000 -1.000000 0.000001
vn 0.000000 -1.000000 0.000001
vn -1.000000 0.000000 0.000000
vn -1.000000 0.000000 0.000000
vn -1.000000 0.000000 0.000000
vn -1.000000 0.000000 0.000000
vn 0.000000 -1.000000 -0.000000
vn 0.000000 -1.000000 0.000000
vn 0.000000 -1.000000 0.000000
vn 0.000000 -1.000000 -0.000000
vn 1.000000 0.000000 0.000000
vn 1.000000 0.000000 0.000000
vn 1.000000 0.000000 0.000000
vn 1.000000 0.000000 0.000000
vn 0.000000 1.000000 0.000000
vn 0.000000 1.000000 0.000000
vn 0.000000 1.000000 0.000000
vn 0.000000 1.000000 0.000000
vn -1.000000 0.000000 0.000000
vn -1.000000 0.000000 0.000000
vn -1.000000 0.000000 0.000000
vn -1.000000 0.000000 0.000000
vn 0.000000 -0.344788 -0.938681
vn -0.000000 -0.603928 -0.797039
vn -0.000000 -0.603928 -0.797039
vn 0.000000 -0.344788 -0.938681
vn 1.000000 0.000000 0.000000
vn 1.000000 0.000000 0.000000
vn 1.000000 0.000000 0.000000
vn 1.000000 0.000000 0.000000
vn 0.000000 0.590459 0.807068
vn 0.000000 0.365030 0.930996
vn 0.000000 0.365030 0.930996
vn 0.000000 0.590459 0.807068
vn -1.000000 0.000000 0.000000
vn -1.000000 0.000000 0.000000
vn -0.000000 -0.919017 -0.394218
vn -0.000000 -0.919017 -0.394218
vn 1.000000 0.000000 0.000000
vn 1.000000 0.000000 0.000000
vn 0.000000 0.922251 0.386592
vn 0.000000 0.922251 0.386592
vn 0.000000 -1.000000 -0.000001
vn 0.000000 -1.000000 -0.000001
vn 0.000000 -1.000000 -0.000001
vn 0.000000 -1.000000 -0.000001
vn -1.000000 0.000000 0.000000
vn -1.000000 0.000000 0.000000
vn 0.000000 -1.000000 0.000000
vn 0.000000 -1.000000 0.000000
vn 1.000000 0.000000 0.000000
vn 1.000000 0.000000 0.000000
vn 0.000000 1.000000 0.000000
vn 0.000000 1.000000 0.000000
vn -1.000000 0.000000 0.000000
vn -1.000000 0.000000 0.000000
vn -1.000000 0.000000 0.000000
vn -1.000000 0.000000 0.000000
vn 0.000000 -0.344787 0.938681
vn 0.000000 -0.344787 0.938681
vn 0.000000 -0.603928 0.797039
vn 0.000000 -0.603928 0.797039
vn 1.000000 0.000000 0.000000
vn 1.000000 0.000000 0.000000
vn 1.000000 0.000000 0.000000
vn 1.000000 0.000000 0.000000
vn 0.000000 0.590459 -0.807067
vn 0.000000 0.590459 -0.807067
vn 0.000000 0.365030 -0.930996
vn 0.000000 0.365030 -0.930996
vn -1.000000 0.000000 0.000000
vn -1.000000 0.000000 0.000000
vn 0.000000 -0.919017 0.394218
vn 0.000000 -0.919017 0.394218
vn 1.000000 0.000000 0.000000
vn 1.000000 0.000000 0.000000
vn 0.000000 0.922251 -0.386592
vn 0.000000 0.922251 -0.386592
vn 0.000000 -1.000000 0.000001
vn 0.000000 -1.000000 0.000001
vn 0.000000 -1.000000 0.000001
vn 0.000000 -1.000000 0.000001
vn -1.000000 0.000000 0.000000
vn -1.000000 0.000000 0.000000
vn -1.000000 0.000000 0.000000
vn -1.000000 0.000000 0.000000
vn 0.000000 -1.000000 -0.000000
vn 0.000000 -1.000000 0.000000
vn 0.000000 -1.000000 0.000000
vn 0.000000 -1.000000 -0.000000
vn 1.000000 0.000000 0.000000
vn 1.000000 0.000000 0.000000
vn 1.000000 0.000000 0.000000
vn 1.000000 0.000000 0.000000
vn 0.000000 1.000000 0.000000
vn 0.000000 1.000000 0.000000
vn 0.000000 1.000000 0.000000
vn 0.000000 1.000000 0.000000
vn -1.000000 -0.000000 0.000000
vn -1.000000 -0.000000 0.000000
vn -1.000000 -0.000000 0.000000
vn -1.000000 -0.000000 0.000000
vn 0.000000 -0.344787 -0.938681
vn -0.000000 -0.603928 -0.797039
vn -0.000000 -0.603928 -0.797039
vn 0.000000 -0.344787 -0.938681
vn 1.000000 0.000000 0.000000
vn 1.000000 0.000000 0.000000
vn 1.000000 0.000000 0.000000
vn 1.000000 0.000000 0.000000
vn 0.000000 0.590459 0.807068
vn 0.000000 0.365030 0.930996
vn 0.000000 0.365030 0.930996
vn 0.000000 0.590459 0.807068
vn -1.000000 0.000000 0.000000
vn -1.000000 0.000000 0.000000
vn -0.000000 -0.919017 -0.394218
vn -0.000000 -0.919017 -0.394218
vn 1.000000 0.000000 0.000000
vn 1.000000 0.000000 0.000000
vn 0.000000 0.922251 0.386592
vn 0.000000 0.922251 0.386592
vn 0.000000 -1.000000 -0.000001
vn 0.000000 -1.000000 -0.000001
vn 0.000000 -1.000000 -0.000001
vn 0.000000 -1.000000 -0.000001
vn -1.000000 0.000000 0.000000
vn -1.000000 0.000000 0.000000
vn 0.000000 -1.000000 0.000000
vn 0.000000 -1.000000 0.000000
vn 1.000000 0.000000 0.000000
vn 1.000000 0.000000 0.000000
vn 0.000000 1.000000 0.000000
vn 0.000000 1.000000 0.000000
vn -1.000000 0.000000 0.000000
vn -1.000000 0.000000 0.000000
vn -1.000000 0.000000 0.000000
vn -1.000000 0.000000 0.000000
vn 0.000000 -0.344787 0.938681
vn 0.000000 -0.344787 0.938681
vn 0.000000 -0.603927 0.797039
vn 0.000000 -0.603927 0.797039
vn 1.000000 0.000000 0.000000
vn 1.000000 0.000000 0.000000
vn 1.000000 0.000000 0.000000
vn 1.000000 0.000000 0.000000
vn 0.000000 0.590459 -0.807068
vn 0.000000 0.590459 -0.807068
vn 0.000000 0.365029 -0.930996
vn 0.000000 0.365029 -0.930996
vn -1.000000 0.000000 0.000000
vn -1.000000 0.000000 0.000000
vn 0.000000 -0.919017 0.394218
vn 0.000000 -0.919017 0.394218
vn 1.000000 0.000000 0.000000
vn 1.000000 0.000000 0.000000
vn 0.000000 0.922251 -0.386592
vn 0.000000 0.922251 -0.386592
vn -0.054416 0.998518 0.000000
vn -0.054416 0.998518 0.000000
vn 0.054417 0.998518 0.000000
vn 0.054417 0.998518 0.000000
vn -0.054416 -0.998518 0.000000
vn -0.054416 -0.998518 0.000000
vn 0.054417 -0.998518 0.000000
vn 0.054417 -0.998518 0.000000
vn -0.998519 -0.054415 0.000000
vn -0.998519 -0.054415 0.000000
vn -0.998518 0.054415 0.000000
vn -0.998518 0.054415 0.000000
vn -0.923885 0.382671 0.000000
vn -0.923885 0.382671 0.000000
vn -0.382681 0.923880 0.000000
vn -0.382681 0.923880 0.000000
vn 0.382687 0.923878 0.000000
vn 0.382687 0.923878 0.000000
vn 0.923879 0.382685 0.000000
vn 0.923879 0.382685 0.000000
vn 0.923879 0.382685 0.000000
vn 0.923879 0.382685 0.000000
vn -0.382681 -0.923880 0.000000
vn -0.382681 -0.923880 0.000000
vn -0.923885 -0.382670 0.000000
vn -0.923885 -0.382670 0.000000
vn 0.994801 -0.101839 0.000000
vn 0.994801 -0.101839 0.000000
vn 0.994801 -0.101839 0.000000
vn 0.994801 -0.101839 0.000000
vn 0.382687 -0.923878 0.000000
vn 0.382687 -0.923878 0.000000
vn 0.000000 0.000000 1.000000
vn 0.000000 0.000000 1.000000
vn 0.000000 0.000000 1.000000
vn 0.000000 0.000000 1.000000
vn 0.000000 0.000000 1.000000
vn 0.000000 0.000000 1.000000
vn 0.000000 0.000000 1.000000
vn 0.000000 0.000000 1.000000
vn 0.000000 0.000000 1.000000
vn 0.000000 0.000000 1.000000
vn 0.000000 0.000000 1.000000
vn 0.000000 0.000000 1.000000
vn 0.000001 0.000000 -1.000000
vn 0.000001 0.000000 -1.000000
vn 0.000001 0.000000 -1.000000
vn 0.000001 0.000000 -1.000000
vn 0.000001 0.000000 -1.000000
vn 0.000001 0.000000 -1.000000
vn 0.000001 0.000000 -1.000000
vn 0.000001 0.000000 -1.000000
vn 0.000001 0.000000 -1.000000
vn 0.000001 0.000000 -1.000000
vn 0.000000 0.000000 -1.000000
vn 0.000000 0.000000 -1.000000
vn 0.000000 0.000000 -1.000000
vn 0.000000 0.000000 -1.000000
vn -0.000000 0.000000 1.000000
vn -0.000000 0.000000 1.000000
vn 0.054416 0.998518 -0.000000
vn 0.054416 0.998518 -0.000000
vn -0.054417 0.998518 0.000000
vn -0.054417 0.998518 0.000000
vn 0.054416 -0.998518 0.000000
vn 0.054416 -0.998518 0.000000
vn -0.054417 -0.998518 0.000000
vn -0.054417 -0.998518 0.000000
vn 0.998519 -0.054414 0.000000
vn 0.998519 -0.054414 0.000000
vn 0.998518 0.054415 -0.000000
vn 0.998518 0.054415 -0.000000
vn 0.923885 0.382669 -0.000000
vn 0.923885 0.382669 -0.000000
vn 0.382682 0.923880 -0.000000
vn 0.382682 0.923880 -0.000000
vn -0.382689 0.923877 0.000000
vn -0.382689 0.923877 0.000000
vn -0.923876 0.382693 0.000000
vn -0.923876 0.382693 0.000000
vn -0.923876 0.382693 0.000000
vn -0.923876 0.382693 0.000000
vn 0.382682 -0.923880 0.000000
vn 0.382682 -0.923880 0.000000
vn 0.923885 -0.382671 0.000000
vn 0.923885 -0.382671 0.000000
vn -0.994801 -0.101841 0.000000
vn -0.994801 -0.101841 0.000000
vn -0.994801 -0.101841 0.000000
vn -0.994801 -0.101841 0.000000
vn -0.382689 -0.923877 0.000000
vn -0.382689 -0.923877 0.000000
vn 0.000001 0.000000 -1.000000
vn 0.000001 0.000000 -1.000000
vn 0.000001 0.000000 -1.000000
vn 0.000001 0.000000 -1.000000
vn 0.000001 0.000000 -1.000000
vn 0.000001 0.000000 -1.000000
vn 0.000001 0.000000 -1.000000
vn 0.000001 0.000000 -1.000000
vn 0.000001 0.000000 -1.000000
vn 0.000001 0.000000 -1.000000
vn -0.000000 0.000000 1.000000
vn -0.000000 0.000000 1.000000
vn -0.000000 0.000000 1.000000
vn -0.000000 0.000000 1.000000
vn -0.000000 0.000000 1.000000
vn -0.000000 0.000000 1.000000
vn -0.000000 0.000000 1.000000
vn -0.000000 0.000000 1.000000
vn -0.000000 0.000000 1.000000
vn -0.000000 0.000000 1.000000
vn 0.000000 -1.000000 0.000000
vn 0.000000 -1.000000 0.000000
vn 0.000000 -1.000000 0.000000
vn 0.000000 -1.000000 0.000000
vn -0.099613 0.985373 -0.138264
vn 0.099514 0.985392 -0.138199
vn 0.139552 0.984829 -0.103141
vn -0.139666 0.984812 -0.103145
vn -0.001138 0.999999 -0.001318
vn 0.001150 0.999999 -0.001317
vn -0.001139 0.999999 0.001304
vn 0.001151 0.999999 0.001303
vn -0.099670 0.985336 0.138490
vn -0.139760 0.984799 0.103137
vn 0.099611 0.985355 0.138398
vn 0.139587 0.984813 0.103247
s off
g SM_DogBed_Small
usemtl initialShadingGroup
f 1/1/1 3/3/2 4/4/3 2/2/4
s 1
f 13/25/5 19/37/6 18/35/7 14/27/8
s 2
f 14/28/9 18/36/10 17/33/11 15/29/12
s 3
f 17/34/13 20/40/14 16/32/15 15/30/16
s 4
f 16/31/17 20/39/18 19/38/19 13/26/20
s 1
f 3/7/21 1/8/22 5/9/23 6/11/24
s 2
f 3/3/25 6/12/26 7/13/27 4/4/28
s 3
f 8/16/29 2/6/30 4/5/31 7/14/32
s 4
f 5/10/33 1/1/34 2/2/35 8/15/36
s 1
f 6/11/24 5/9/23 9/17/37 10/19/38
s 2
f 6/12/26 10/20/39 11/21/40 7/13/27
s 3
f 12/24/41 8/16/29 7/14/32 11/22/42
s 4
f 9/18/43 5/10/33 8/15/36 12/23/44
s 1
f 10/19/38 9/17/37 13/25/5 14/27/8
s 2
f 10/20/39 14/28/9 15/29/12 11/21/40
s 3
f 16/32/15 12/24/41 11/22/42 15/30/16
s 4
f 13/26/20 9/18/43 12/23/44 16/31/17
s off
f 21/41/45 22/42/46 24/43/47 23/44/48
s 1
f 33/45/49 34/46/50 18/47/7 19/48/6
s 2
f 34/49/51 35/50/52 17/51/11 18/52/10
s 3
f 17/53/13 35/54/53 36/55/54 20/56/14
s 4
f 36/57/55 33/58/56 19/59/19 20/60/18
s 1
f 23/61/57 26/62/58 25/63/59 21/64/60
s 2
f 23/44/61 24/43/62 27/65/63 26/66/64
s 3
f 28/67/65 27/68/66 24/69/67 22/70/68
s 4
f 25/71/69 28/72/70 22/42/71 21/41/72
s 1
f 26/62/58 30/73/73 29/74/74 25/63/59
s 2
f 26/66/64 27/65/63 31/75/75 30/76/76
s 3
f 32/77/77 31/78/78 27/68/66 28/67/65
s 4
f 29/79/79 32/80/80 28/72/70 25/71/69
s 1
f 30/73/73 34/46/50 33/45/49 29/74/74
s 2
f 30/76/76 31/75/75 35/50/52 34/49/51
s 3
f 36/55/54 35/54/53 31/78/78 32/77/77
s 4
f 33/58/56 36/57/55 32/80/80 29/79/79
s off
f 37/81/81 39/84/82 40/83/83 38/82/84
s 13
f 49/85/85 55/88/86 54/87/87 50/86/88
s 14
f 50/89/89 54/92/90 53/91/91 51/90/92
s 15
f 53/93/93 56/96/94 52/95/95 51/94/96
s 16
f 52/97/97 56/100/98 55/99/99 49/98/100
s 13
f 39/101/101 37/104/102 41/103/103 42/102/104
s 14
f 39/84/105 42/106/106 43/105/107 40/83/108
s 15
f 44/107/109 38/110/110 40/109/111 43/108/112
s 16
f 41/111/113 37/81/114 38/82/115 44/112/116
s 13
f 42/102/104 41/103/103 45/114/117 46/113/118
s 14
f 42/106/106 46/116/119 47/115/120 43/105/107
s 15
f 48/117/121 44/107/109 43/108/112 47/118/122
s 16
f 45/119/123 41/111/113 44/112/116 48/120/124
s 13
f 46/113/118 45/114/117 49/85/85 50/86/88
s 14
f 46/116/119 50/89/89 51/90/92 47/115/120
s 15
f 52/95/95 48/117/121 47/118/122 51/94/96
s 16
f 49/98/100 45/119/123 48/120/124 52/97/97
s off
f 57/121/125 58/124/126 60/123/127 59/122/128
s 13
f 69/125/129 70/128/130 54/127/87 55/126/86
s 14
f 70/129/131 71/132/132 53/131/91 54/130/90
s 15
f 53/133/93 71/136/133 72/135/134 56/134/94
s 16
f 72/137/135 69/140/136 55/139/99 56/138/98
s 13
f 59/141/137 62/144/138 61/143/139 57/142/140
s 14
f 59/122/141 60/123/142 63/146/143 62/145/144
s 15
f 64/147/145 63/150/146 60/149/147 58/148/148
s 16
f 61/151/149 64/152/150 58/124/151 57/121/152
s 13
f 62/144/138 66/154/153 65/153/154 61/143/139
s 14
f 62/145/144 63/146/143 67/156/155 66/155/156
s 15
f 68/157/157 67/158/158 63/150/146 64/147/145
s 16
f 65/159/159 68/160/160 64/152/150 61/151/149
s 13
f 66/154/153 70/128/130 69/125/129 65/153/154
s 14
f 66/155/156 67/156/155 71/132/132 70/129/131
s 15
f 72/135/134 71/136/133 67/158/158 68/157/157
s 16
f 69/140/136 72/137/135 68/160/160 65/159/159
s 25
f 78/161/161 75/162/162 80/163/163 83/164/164
s 26
f 86/165/165 90/166/166 95/167/167 93/168/168
s 27
f 89/169/169 87/170/170 74/171/171 76/172/172
f 74/171/171 73/173/173 77/174/174 76/172/172
s 25
f 73/173/175 75/162/162 78/161/161 77/175/176
f 80/163/163 79/176/177 84/177/178 83/164/164
s off
f 79/176/179 81/178/180 82/179/181 84/180/182
s 26
f 86/165/165 85/181/183 88/182/184 90/166/166
s 27
f 85/183/185 87/170/170 89/169/169 88/184/186
s off
f 92/185/187 91/186/188 94/187/189 96/188/190
s 26
f 91/189/191 93/168/168 95/167/167 94/190/192
s 28
f 91/186/193 92/185/194 81/178/195 79/176/196 80/163/197 75/162/198 73/173/199 74/171/200 87/170/201 85/183/202 86/191/203 93/192/204
s 29
f 94/190/205 95/167/206 90/166/207 88/182/208 89/193/209 76/194/210 77/175/211 78/161/212 83/164/213 84/177/214 82/195/215 96/196/216
f 96/188/216 82/179/215 105/197/217 116/198/218
s 28
f 81/178/195 92/185/194 120/199/219 106/200/220
s 30
f 102/201/221 99/202/222 104/203/223 107/204/224
s 31
f 110/205/225 114/206/226 119/207/227 117/208/228
s 32
f 113/209/229 111/210/230 98/211/231 100/212/232
f 98/211/231 97/213/233 101/214/234 100/212/232
s 30
f 97/213/235 99/202/222 102/201/221 101/215/236
f 104/203/223 103/216/237 108/217/238 107/204/224
s off
f 103/216/239 105/197/240 106/200/241 108/218/242
s 31
f 110/205/225 109/219/243 112/220/244 114/206/226
s 32
f 109/221/245 111/210/230 113/209/229 112/222/246
s off
f 116/198/247 115/223/248 118/224/249 120/199/250
s 31
f 115/225/251 117/208/228 119/207/227 118/226/252
s 29
f 115/223/253 116/198/218 105/197/217 103/216/254 104/203/255 99/202/256 97/213/257 98/211/258 111/210/259 109/221/260 110/227/261 117/228/262
s 28
f 118/226/263 119/207/264 114/206/265 112/220/266 113/229/267 100/230/268 101/215/269 102/201/270 107/204/271 108/217/272 106/231/220 120/232/219
s off
f 96/188/273 116/198/274 120/199/275 92/185/276
s 33
f 122/233/277 123/234/278 81/178/279 106/200/280
f 122/233/277 121/235/281 124/236/282 123/234/278
f 124/236/282 121/235/281 125/237/283 127/238/284
f 121/235/281 122/233/277 126/239/285 125/237/283
f 126/239/285 122/233/277 106/200/280 105/197/286
f 125/237/283 126/239/285 128/240/287 127/238/284
f 128/240/287 126/239/285 105/197/286 82/179/288
f 123/234/278 128/240/287 82/179/288 81/178/279
f 123/234/278 124/236/282 127/238/284 128/240/287
