# This file uses centimeters as units for non-parametric coordinates.

mtllib SM_DogBone.mtl
g default
v -0.255038 0.100220 0.054541
v -0.255038 0.037242 0.054541
v -0.227828 0.017506 0.000000
v -0.255038 0.037242 -0.054540
v -0.255038 0.100220 -0.054541
v -0.227828 0.119956 -0.000000
v 0.255038 0.100220 0.054541
v 0.255038 0.037242 0.054541
v 0.227828 0.017506 0.000000
v 0.255038 0.037242 -0.054540
v 0.255038 0.100220 -0.054541
v 0.227828 0.119956 -0.000000
v -0.321331 0.110981 0.073179
v -0.321331 0.026481 0.073179
v -0.294121 -0.000000 0.000000
v -0.321331 0.026481 -0.073179
v -0.321331 0.110981 -0.073179
v -0.294121 0.137462 -0.000000
v 0.321331 0.110981 0.073179
v 0.321331 0.026481 0.073179
v 0.294121 -0.000000 0.000000
v 0.321331 0.026481 -0.073179
v 0.321331 0.110981 -0.073179
v 0.294121 0.137462 -0.000000
v -0.356900 0.110169 0.071772
v -0.356900 0.027293 0.071772
v -0.329691 0.001321 0.000000
v -0.356900 0.027293 -0.071772
v -0.356900 0.110169 -0.071772
v -0.329691 0.136141 -0.000000
v 0.356900 0.110169 0.071772
v 0.356900 0.027293 0.071772
v 0.329691 0.001321 0.000000
v 0.356900 0.027293 -0.071772
v 0.356900 0.110169 -0.071772
v 0.329691 0.136141 -0.000000
v -0.383222 0.096959 0.048892
v -0.383222 0.040503 0.048892
v -0.376006 0.068731 -0.000000
v -0.356012 0.012275 0.000000
v -0.383222 0.040503 -0.048892
v -0.383222 0.096959 -0.048892
v -0.356013 0.114651 -0.000000
v 0.383222 0.096959 0.048892
v 0.383222 0.040503 0.048892
v 0.376006 0.068731 -0.000000
v 0.356012 0.012275 0.000000
v 0.383222 0.040503 -0.048892
v 0.383222 0.096959 -0.048892
v 0.356013 0.114651 -0.000000
v 0.000000 0.021236 0.000000
v 0.000000 0.044984 0.041131
v 0.000000 0.092478 0.041131
v 0.000000 0.116225 -0.000000
v 0.000000 0.092478 -0.041131
v 0.000000 0.044984 -0.041131
vt 0.578125 0.020934
vt 0.421875 0.020934
vt 0.343750 0.156250
vt 0.421875 0.291566
vt 0.578125 0.291566
vt 0.656250 0.156250
vt 0.375000 0.312500
vt 0.416667 0.312500
vt 0.458333 0.312500
vt 0.500000 0.312500
vt 0.541667 0.312500
vt 0.583333 0.312500
vt 0.625000 0.312500
vt 0.375000 0.687500
vt 0.416667 0.687500
vt 0.458333 0.687500
vt 0.500000 0.687500
vt 0.541667 0.687500
vt 0.583333 0.687500
vt 0.625000 0.687500
vt 0.578125 0.708434
vt 0.421875 0.708434
vt 0.343750 0.843750
vt 0.421875 0.979066
vt 0.578125 0.979066
vt 0.656250 0.843750
vt 0.500000 0.156250
vt 0.500000 0.843750
vt 0.421875 0.020934
vt 0.578125 0.020934
vt 0.343750 0.156250
vt 0.421875 0.291566
vt 0.578125 0.291566
vt 0.656250 0.156250
vt 0.578125 0.979066
vt 0.421875 0.979066
vt 0.343750 0.843750
vt 0.421875 0.708434
vt 0.578125 0.708434
vt 0.656250 0.843750
vt 0.421875 0.020934
vt 0.578125 0.020934
vt 0.343750 0.156250
vt 0.421875 0.291566
vt 0.578125 0.291566
vt 0.656250 0.156250
vt 0.578125 0.979066
vt 0.421875 0.979066
vt 0.343750 0.843750
vt 0.421875 0.708434
vt 0.578125 0.708434
vt 0.656250 0.843750
vt 0.421875 0.020934
vt 0.578125 0.020934
vt 0.343750 0.156250
vt 0.421875 0.291566
vt 0.578125 0.291566
vt 0.656250 0.156250
vt 0.578125 0.979066
vt 0.421875 0.979066
vt 0.343750 0.843750
vt 0.421875 0.708434
vt 0.578125 0.708434
vt 0.656250 0.843750
vt 0.458333 0.500000
vt 0.416667 0.500000
vt 0.625000 0.500000
vt 0.375000 0.500000
vt 0.583333 0.500000
vt 0.541667 0.500000
vt 0.500000 0.500000
vn 0.052844 0.413725 0.908867
vn 0.052844 -0.413724 0.908868
vn 0.000000 -0.508260 0.861204
vn -0.000000 0.508261 0.861203
vn 0.033234 -0.906282 0.421364
vn 0.000000 -0.906783 0.421597
vn 0.033234 -0.906283 -0.421364
vn 0.052844 -0.413724 -0.908867
vn 0.000000 -0.508260 -0.861204
vn 0.000000 -0.906783 -0.421597
vn 0.052844 0.413725 -0.908867
vn 0.000000 0.508260 -0.861204
vn 0.036646 0.999328 -0.000000
vn 0.000000 1.000000 0.000000
vn -0.840382 -0.388018 0.378419
vn -0.851546 0.395871 0.343738
vn -0.999997 0.002636 0.000000
vn -0.614837 -0.788654 0.000000
vn -0.840382 -0.388018 -0.378419
vn -0.851546 0.395872 -0.343738
vn -0.655862 0.754881 -0.000000
vn 0.851546 0.395871 0.343738
vn 0.840382 -0.388018 0.378419
vn 0.999997 0.002636 0.000000
vn 0.614837 -0.788654 0.000000
vn 0.840382 -0.388018 -0.378419
vn 0.851546 0.395872 -0.343738
vn 0.655862 0.754881 -0.000000
vn 0.299595 -0.542291 0.784961
vn 0.299595 0.542291 0.784961
vn 0.153582 0.504226 0.849805
vn 0.153581 -0.504227 0.849805
vn 0.245338 -0.873443 0.420604
vn 0.165785 -0.902411 0.397705
vn 0.299595 -0.542291 -0.784960
vn 0.245338 -0.873443 -0.420603
vn 0.165785 -0.902411 -0.397705
vn 0.153581 -0.504226 -0.849805
vn 0.299595 0.542291 -0.784961
vn 0.153582 0.504226 -0.849805
vn 0.270421 0.962742 0.000000
vn 0.180690 0.983540 0.000000
vn -0.299595 0.542291 0.784961
vn -0.299595 -0.542291 0.784961
vn -0.153581 -0.504226 0.849805
vn -0.153582 0.504226 0.849805
vn -0.245338 -0.873443 0.420604
vn -0.165785 -0.902411 0.397706
vn -0.245338 -0.873443 -0.420603
vn -0.299595 -0.542291 -0.784961
vn -0.153581 -0.504226 -0.849805
vn -0.165785 -0.902411 -0.397705
vn -0.299595 0.542291 -0.784961
vn -0.153582 0.504226 -0.849805
vn -0.270421 0.962742 0.000000
vn -0.180690 0.983540 0.000000
vn -0.369057 0.540039 0.756409
vn -0.331208 -0.531541 0.779593
vn -0.178257 -0.941308 0.286642
vn -0.178257 -0.941308 -0.286642
vn -0.331208 -0.531541 -0.779593
vn -0.369057 0.540038 -0.756410
vn -0.220324 0.975427 -0.000000
vn 0.331208 -0.531541 0.779593
vn 0.369057 0.540039 0.756409
vn 0.178257 -0.941308 0.286642
vn 0.331208 -0.531541 -0.779593
vn 0.178257 -0.941308 -0.286642
vn 0.369057 0.540038 -0.756410
vn 0.220324 0.975427 -0.000000
vn -0.033234 -0.906282 0.421364
vn -0.052844 -0.413724 0.908868
vn -0.052844 0.413725 0.908867
vn -0.036646 0.999328 -0.000000
vn -0.052844 0.413725 -0.908867
vn -0.052844 -0.413724 -0.908867
vn -0.033234 -0.906283 -0.421364
s 1
g SM_DogBone
usemtl initialShadingGroup
f 1/7/1 2/8/2 52/66/3 53/68/4
f 2/8/2 3/9/5 51/65/6 52/66/3
f 3/9/7 4/10/8 56/71/9 51/65/10
f 4/10/8 5/11/11 55/70/12 56/71/9
f 5/11/11 6/12/13 54/69/14 55/70/12
f 6/12/13 1/13/1 53/67/4 54/69/14
s 3
f 38/53/15 37/54/16 39/27/17
f 40/55/18 38/53/15 39/27/17
f 41/56/19 40/55/18 39/27/17
f 42/57/20 41/56/19 39/27/17
f 43/58/21 42/57/20 39/27/17
f 37/54/16 43/58/21 39/27/17
s 4
f 44/59/22 45/60/23 46/28/24
f 45/60/23 47/61/25 46/28/24
f 47/61/25 48/62/26 46/28/24
f 48/62/26 49/63/27 46/28/24
f 49/63/27 50/64/28 46/28/24
f 50/64/28 44/59/22 46/28/24
s 3
f 2/2/29 1/1/30 13/30/31 14/29/32
f 3/3/33 2/2/29 14/29/32 15/31/34
f 4/4/35 3/3/36 15/31/37 16/32/38
f 5/5/39 4/4/35 16/32/38 17/33/40
f 6/6/41 5/5/39 17/33/40 18/34/42
f 1/1/30 6/6/41 18/34/42 13/30/31
s 4
f 7/25/43 8/24/44 20/36/45 19/35/46
f 8/24/44 9/23/47 21/37/48 20/36/45
f 9/23/49 10/22/50 22/38/51 21/37/52
f 10/22/50 11/21/53 23/39/54 22/38/51
f 11/21/53 12/26/55 24/40/56 23/39/54
f 12/26/55 7/25/43 19/35/46 24/40/56
s 3
f 14/29/32 13/30/31 25/42/57 26/41/58
f 15/31/34 14/29/32 26/41/58 27/43/59
f 16/32/38 15/31/37 27/43/60 28/44/61
f 17/33/40 16/32/38 28/44/61 29/45/62
f 18/34/42 17/33/40 29/45/62 30/46/63
f 13/30/31 18/34/42 30/46/63 25/42/57
s 4
f 19/35/46 20/36/45 32/48/64 31/47/65
f 20/36/45 21/37/48 33/49/66 32/48/64
f 21/37/52 22/38/51 34/50/67 33/49/68
f 22/38/51 23/39/54 35/51/69 34/50/67
f 23/39/54 24/40/56 36/52/70 35/51/69
f 24/40/56 19/35/46 31/47/65 36/52/70
s 3
f 26/41/58 25/42/57 37/54/16 38/53/15
f 27/43/59 26/41/58 38/53/15 40/55/18
f 28/44/61 27/43/60 40/55/18 41/56/19
f 29/45/62 28/44/61 41/56/19 42/57/20
f 30/46/63 29/45/62 42/57/20 43/58/21
f 25/42/57 30/46/63 43/58/21 37/54/16
s 4
f 31/47/65 32/48/64 45/60/23 44/59/22
f 32/48/64 33/49/66 47/61/25 45/60/23
f 33/49/68 34/50/67 48/62/26 47/61/25
f 34/50/67 35/51/69 49/63/27 48/62/26
f 35/51/69 36/52/70 50/64/28 49/63/27
f 36/52/70 31/47/65 44/59/22 50/64/28
s 1
f 52/66/3 51/65/6 9/16/71 8/15/72
f 53/68/4 52/66/3 8/15/72 7/14/73
f 54/69/14 53/67/4 7/20/73 12/19/74
f 55/70/12 54/69/14 12/19/74 11/18/75
f 56/71/9 55/70/12 11/18/75 10/17/76
f 51/65/10 56/71/9 10/17/76 9/16/77
