# This file uses centimeters as units for non-parametric coordinates.

mtllib SM_DogMat_Small.mtl
g default
v -2.167373 0.138492 4.467389
v -2.729123 0.138492 4.298671
v -2.959609 0.138492 3.892158
v -2.796705 0.000000 3.871952
v -2.550989 0.000000 4.249067
v -1.957777 0.000000 4.405273
v 2.959609 0.138492 3.892158
v 2.729123 0.138492 4.298671
v 2.167373 0.138492 4.467389
v 1.957777 0.000000 4.405273
v 2.550989 0.000000 4.249067
v 2.796705 0.000000 3.871952
v 2.248851 0.138492 -4.515289
v 2.706487 0.138492 -4.293089
v 2.899180 0.138492 -3.755546
v 2.796705 0.000000 -3.804659
v 2.572438 0.000000 -4.229358
v 2.031010 0.000000 -4.405273
v -2.899179 0.138499 -3.852546
v -2.706487 0.138492 -4.293089
v -2.248851 0.138492 -4.515289
v -2.031010 0.000000 -4.405273
v -2.572438 0.000000 -4.229358
v -2.796705 0.000000 -3.804659
v -2.636755 0.276984 -4.335100
v -2.081790 0.276984 -4.515414
v 2.081790 0.276984 -4.515414
v 2.636755 0.276984 -4.335100
v 2.866629 0.276984 -3.899783
v 2.866629 0.276984 3.968758
v 2.614769 0.276984 4.355302
v 2.006726 0.276984 4.515414
v -2.006726 0.276984 4.515414
v -2.614769 0.276984 4.355302
v -2.462941 0.082626 3.459739
v -2.256656 0.082626 3.912933
v -1.758640 0.082626 4.100652
v 2.462941 0.082626 3.459739
v 1.758640 0.082626 4.100652
v 2.256656 0.082626 3.912933
v 1.758640 0.082626 -4.100652
v 2.462941 0.082626 -3.459739
v 2.256656 0.082626 -3.912933
v -2.462941 0.082626 -3.459739
v -1.758640 0.082626 -4.100652
v -2.256656 0.082626 -3.912933
v -2.256656 0.194358 -3.912933
v -1.758640 0.194358 -4.100652
v 2.462941 0.194358 -3.459739
v 1.758640 0.194358 -4.100652
v 2.256656 0.194358 -3.912933
v 1.758640 0.194358 4.100652
v 2.462941 0.194358 3.459739
v 2.256656 0.194358 3.912933
v -1.758640 0.194358 4.100652
v -2.256656 0.194358 3.912933
v 1.758640 0.322282 -4.100652
v 1.781806 0.438781 -4.126561
v 1.840330 0.499866 -4.192016
v -1.840330 0.499866 -4.192016
v -1.781806 0.438781 -4.126561
v -1.758640 0.322282 -4.100652
v 2.462941 0.306666 3.459739
v 2.486704 0.432865 3.489087
v 2.546141 0.495682 3.562495
v 2.553459 0.497494 -3.553283
v 2.488721 0.434972 -3.486381
v 2.462941 0.311834 -3.459739
v -1.758640 0.326599 4.100652
v -1.776835 0.440650 4.128485
v -1.822990 0.501785 4.199088
v 1.822990 0.501785 4.199088
v 1.776835 0.440650 4.128485
v 1.758640 0.326599 4.100652
v -2.256656 0.325202 -3.912933
v -2.282516 0.439249 -3.938846
v -2.347637 0.498891 -4.004099
v 2.256656 0.325202 -3.912933
v 2.282516 0.439249 -3.938846
v 2.347637 0.498891 -4.004099
v 2.256656 0.327118 3.912933
v 2.281081 0.439875 3.940827
v 2.342569 0.499203 4.011048
v -2.256656 0.327118 3.912933
v -2.281770 0.440071 3.941615
v -2.345001 0.499885 4.013824
v 2.052033 0.441486 -4.450872
v 1.951710 0.533654 -4.316584
v -2.052033 0.441486 -4.450872
v -1.960447 0.536305 -4.326355
v 2.831664 0.417361 3.920350
v 2.715139 0.537519 3.771215
v 2.827825 0.432771 -3.846995
v 2.678771 0.535317 -3.763207
v -1.977885 0.442393 4.450518
v -1.897864 0.532852 4.313624
v 1.977885 0.442393 4.450518
v 1.902337 0.534707 4.320466
v -2.598442 0.444211 -4.272110
v -2.492705 0.536848 -4.149462
v 2.598204 0.445248 -4.271720
v 2.491984 0.536659 -4.148740
v 2.576377 0.445968 4.291354
v 2.477567 0.537099 4.165218
v -2.576377 0.445968 4.291354
v -2.479700 0.537698 4.167654
v -2.823112 0.203647 -3.852347
v -2.838369 0.276984 -3.953300
v -2.797949 0.372403 -3.817613
v -2.796002 0.440479 -3.901012
v -2.826636 0.204368 3.918330
v -2.833352 0.276984 4.019829
v -2.942921 0.163349 3.938322
v -2.797106 0.387357 3.877446
v -2.790059 0.443206 3.965410
v -2.532444 0.208584 -3.535502
v -2.422097 0.194358 -3.549472
v -2.462941 0.194358 -3.412051
v -2.532285 0.302857 -3.535329
v -2.422396 0.327374 -3.548813
v -2.530274 0.208140 3.544641
v -2.462941 0.194358 3.412051
v -2.419428 0.194358 3.555336
v -2.528359 0.299791 3.542226
v -2.419832 0.327273 3.554447
v -2.575742 0.396921 -3.579268
v -2.524517 0.498892 -3.631916
v -2.717035 0.447503 -3.726178
v -2.680153 0.537416 -3.787890
v -2.451885 0.439824 -3.571430
v -2.547771 0.372557 -3.550557
v -2.544308 0.369608 3.561571
v -2.448491 0.439473 3.579632
v -2.567568 0.401825 3.590125
v -2.518716 0.498000 3.646650
v -2.726915 0.444564 3.787928
v -2.685238 0.539536 3.845008
vt 0.597162 0.625000
vt 0.409223 0.500000
vt 0.375000 0.265133
vt 0.591399 0.125000
vt 0.587504 0.250000
vt 0.408601 0.125000
vt 0.625000 0.482958
vt 0.641022 0.125000
vt 0.402838 0.625000
vt 0.853839 0.125000
vt 0.412496 0.250000
vt 0.625000 0.265133
vt 0.590777 0.500000
vt 0.375000 0.482958
vt 0.375000 0.269537
vt 0.410745 0.250000
vt 0.589255 0.250000
vt 0.625000 0.269537
vt 0.625000 0.480463
vt 0.589255 0.500000
vt 0.410745 0.500000
vt 0.375000 0.480463
vt 0.375000 0.125000
vt 0.375000 0.250000
vt 0.625000 0.125000
vt 0.625000 0.250000
vt 0.875000 0.125000
vt 0.625000 0.625000
vt 0.625000 0.500000
vt 0.375000 0.625000
vt 0.375000 0.500000
vt 0.375000 0.250000
vt 0.625000 0.250000
vt 0.625000 0.500000
vt 0.375000 0.500000
vt 0.410745 0.750000
vt 0.589255 0.750000
vt 0.625000 0.769537
vt 0.625000 0.980463
vt 0.589255 1.000000
vt 0.410745 1.000000
vt 0.375000 0.750000
vt 0.410745 0.750000
vt 0.589255 0.750000
vt 0.625000 0.750000
vt 0.625000 0.750000
vt 0.625000 0.769537
vt 0.625000 0.980463
vt 0.625000 1.000000
vt 0.625000 1.000000
vt 0.589255 1.000000
vt 0.410745 1.000000
vt 0.589255 0.750000
vt 0.410745 0.750000
vt 0.625000 0.980463
vt 0.625000 0.769537
vt 0.410745 1.000000
vt 0.589255 1.000000
vt 0.625000 0.750000
vt 0.625000 1.000000
vt 0.590777 0.750000
vt 0.409223 0.750000
vt 0.625000 0.984867
vt 0.625000 0.767042
vt 0.412496 1.000000
vt 0.587504 1.000000
vt 0.409223 0.750000
vt 0.625000 0.750000
vt 0.590777 0.750000
vt 0.625000 0.767042
vt 0.625000 0.750000
vt 0.625000 1.000000
vt 0.625000 0.984867
vt 0.587504 1.000000
vt 0.625000 1.000000
vt 0.412496 1.000000
vt 0.590334 0.750000
vt 0.410289 0.750000
vt 0.625000 0.983791
vt 0.625000 0.768860
vt 0.411969 1.000000
vt 0.588689 1.000000
vt 0.409617 0.750000
vt 0.625000 0.750000
vt 0.589712 0.750000
vt 0.625000 0.765430
vt 0.625000 0.750000
vt 0.625000 1.000000
vt 0.625000 0.981561
vt 0.587991 1.000000
vt 0.625000 1.000000
vt 0.411311 1.000000
vt 0.125000 0.125000
vt 0.358978 0.125000
vt 0.146172 0.125032
vt 0.382560 0.930655
vt 0.375000 0.770991
vt 0.375000 1.000000
vt 0.375000 0.764947
vt 0.375000 0.984392
vt 0.375000 0.769107
vt 0.375000 0.769108
vt 0.375000 0.984584
vt 0.375000 0.768986
vt 0.375000 0.768824
vt 0.375000 0.983592
vt 0.375000 0.765923
vt 0.375000 0.750000
vt 0.375000 0.765740
vt 0.375000 0.750000
vt 0.375000 0.765669
vt 0.375000 0.765697
vt 0.375000 1.000000
vt 0.353087 0.725487
vt 0.375000 0.767331
vt 0.375000 0.767831
vt 0.375000 0.981404
vt 0.375000 0.981609
vt 0.375000 0.981198
vt 0.375000 0.981177
vt 0.375000 1.000000
vt 0.375000 0.984546
vt 0.375000 1.000000
vt 0.375000 0.984277
vt 0.375000 0.764793
vt 0.375000 0.750000
vt 0.375000 1.000000
vt 0.375000 0.986508
vt 0.375000 0.750000
vt 0.375000 0.750000
vt 0.375000 1.000000
vt 0.375000 0.986866
vt 0.375000 0.987011
vt 0.375000 0.764875
vt 0.375000 0.750000
vt 0.375000 1.000000
vt 0.375000 0.984757
vt 0.361854 0.279331
vt 0.375000 0.979009
vn -0.715401 -0.698539 0.015647
vn -0.713352 -0.700483 0.021267
vn -0.344936 -0.688286 0.638186
vn -0.456098 -0.738978 0.495869
vn -0.010414 -0.419932 0.907496
vn -0.084009 -0.492607 0.866188
vn 0.084009 -0.492607 0.866188
vn 0.010414 -0.419932 0.907496
vn 0.344936 -0.688286 0.638186
vn 0.456098 -0.738978 0.495870
vn 0.713754 -0.700069 0.021407
vn 0.715823 -0.698105 0.015753
vn 0.723400 -0.690286 -0.014041
vn 0.724755 -0.688276 -0.031723
vn 0.449379 -0.715911 -0.534350
vn 0.525682 -0.701333 -0.481447
vn 0.012768 -0.628599 -0.777625
vn 0.079366 -0.660588 -0.746542
vn -0.079366 -0.660588 -0.746542
vn -0.012768 -0.628599 -0.777625
vn -0.420121 -0.733883 -0.533774
vn -0.489118 -0.728615 -0.479462
vn -0.720310 -0.693396 -0.018838
vn -0.719657 -0.693887 -0.024795
vn -0.535599 0.844467 0.002958
vn -0.564405 0.824632 0.037811
vn -0.529862 0.848051 -0.007469
vn -0.540323 0.841451 0.003340
vn -0.550321 0.834778 -0.017113
vn 0.085783 -0.258020 0.962324
vn 0.023293 -0.019755 0.999534
vn -0.023293 -0.019755 0.999534
vn -0.085783 -0.258020 0.962324
vn 0.111615 0.052061 -0.992387
vn -0.111615 0.052061 -0.992387
vn -0.025871 0.168887 -0.985296
vn 0.025922 0.168933 -0.985287
vn 0.911082 0.412124 0.009161
vn 0.913616 0.406419 -0.011332
vn 0.953076 0.298462 -0.050657
vn 0.942401 0.331518 0.044449
vn 0.016731 -0.968990 -0.246532
vn 0.000170 -0.999980 -0.006307
vn -0.000170 -0.999980 -0.006307
vn -0.016731 -0.968990 -0.246532
vn -0.224684 -0.974295 -0.016304
vn -0.013225 -0.999913 -0.000182
vn -0.012827 -0.999918 0.000187
vn -0.227826 -0.973600 0.014100
vn -0.020345 -0.969981 0.242330
vn -0.000160 -0.999977 0.006739
vn 0.000160 -0.999977 0.006739
vn 0.020345 -0.969981 0.242330
vn 0.227826 -0.973600 0.014100
vn 0.012827 -0.999918 0.000187
vn 0.013225 -0.999913 -0.000182
vn 0.224684 -0.974295 -0.016304
vn 0.001050 -0.999999 0.001260
vn -0.001050 -0.999999 0.001260
vn -0.001007 -0.999999 -0.001305
vn 0.001007 -0.999999 -0.001305
vn -0.451293 0.217083 0.865569
vn -0.665612 0.215784 0.714421
vn -0.788752 0.373608 0.488146
vn 0.113920 -0.983495 -0.140572
vn 0.462696 0.223407 0.857906
vn 0.681765 0.234717 0.692895
vn -0.113920 -0.983495 -0.140572
vn 0.574437 0.284407 -0.767551
vn 0.772975 0.114392 -0.624039
vn -0.121105 -0.983371 0.135335
vn -0.892501 0.269476 -0.361696
vn -0.547941 0.303734 -0.779427
vn -0.730488 0.200599 -0.652799
vn 0.121105 -0.983371 0.135335
vn -0.017438 0.931993 0.362056
vn 0.017575 0.932151 0.361644
vn 0.036626 0.521779 0.852294
vn -0.036626 0.521779 0.852294
vn 0.042893 0.114801 0.992462
vn -0.042893 0.114801 0.992462
vn -0.341628 0.939783 -0.009919
vn -0.343905 0.938960 0.009122
vn -0.871097 0.490625 0.021860
vn -0.869036 0.494255 -0.022078
vn -0.993465 0.111211 0.025664
vn -0.993469 0.111253 -0.025363
vn 0.017923 0.926278 -0.376415
vn -0.018058 0.926417 -0.376065
vn -0.036542 0.544049 -0.838257
vn 0.036452 0.544590 -0.837910
vn -0.043714 0.120817 -0.991712
vn 0.043688 0.121048 -0.991685
vn -0.047165 0.000000 0.998887
vn 0.047165 0.000000 0.998887
vn -0.999559 0.000000 -0.029706
vn -0.999548 0.000000 0.030074
vn 0.046780 0.000000 -0.998905
vn -0.046780 0.000000 -0.998905
vn 0.349282 0.139183 0.926623
vn 0.352709 0.000000 0.935733
vn -0.666737 0.000000 0.745293
vn -0.661774 0.154419 0.733628
vn -0.661053 0.000000 -0.750339
vn -0.660918 0.155147 -0.734245
vn 0.352709 0.000000 -0.935733
vn 0.347752 0.142622 -0.926676
vn -0.524648 0.623181 0.579991
vn -0.186619 0.958824 0.214077
vn -0.521211 0.626589 -0.579418
vn -0.176819 0.961030 -0.212499
vn 0.479457 0.646556 -0.593369
vn 0.168523 0.960779 -0.220235
vn 0.175038 0.960382 0.216862
vn 0.491126 0.633443 0.597951
vn 0.034495 0.560740 -0.827273
vn -0.034402 0.560177 -0.827659
vn -0.003531 0.932537 -0.361058
vn 0.004178 0.932206 -0.361904
vn 0.148304 0.970124 -0.192004
vn 0.479854 0.639068 -0.601109
vn -0.470198 0.628062 -0.620042
vn -0.142163 0.969879 -0.197801
vn 0.889444 0.456116 0.029129
vn 0.872221 0.488604 -0.022283
vn 0.469913 0.882701 -0.004634
vn 0.466660 0.884432 0.002872
vn 0.139387 0.968636 0.205707
vn 0.421428 0.638902 0.643586
vn -0.029633 0.574579 0.817913
vn 0.029647 0.574597 0.817899
vn 0.003532 0.942633 0.333812
vn -0.003929 0.942452 0.334319
vn -0.114826 0.969495 0.216551
vn -0.404240 0.628178 0.664818
vn 0.012150 0.999859 0.011621
vn -0.015667 0.999180 0.037329
vn -0.028480 0.998702 -0.042228
vn 0.009469 0.999882 -0.012135
vn 0.001443 0.999999 -0.000003
vn 0.001418 0.999999 0.000001
vn 0.000010 1.000000 -0.000003
vn 0.000000 1.000000 -0.000000
vn 0.000000 1.000000 -0.000000
vn 0.000000 1.000000 -0.000000
vn 0.000000 1.000000 -0.000000
vn 0.000000 1.000000 -0.000000
vn 0.000000 1.000000 -0.000000
vn 0.000000 1.000000 -0.000000
vn 0.000000 1.000000 -0.000000
vn 0.000000 1.000000 -0.000000
vn 0.000000 1.000000 -0.000000
vn 0.000009 1.000000 0.000003
vn -0.913150 0.314942 0.258783
vn -0.897237 0.347252 0.272729
vn -0.619007 0.576894 0.532940
vn -0.624159 0.575570 0.528342
vn -0.978234 0.172538 -0.115282
vn -0.917834 0.345037 -0.196294
vn -0.919405 0.341713 -0.194746
vn -0.978233 0.172538 -0.115282
vn -0.648771 0.588077 -0.482972
vn -0.647964 0.588259 -0.483833
vn 0.123862 -0.003557 0.992293
vn 0.095545 0.106620 0.989699
vn 0.099716 0.090772 0.990867
vn 0.123862 -0.003557 0.992293
vn -0.095037 0.403263 0.910136
vn -0.065405 0.370502 0.926526
vn 0.104832 -0.015334 -0.994372
vn 0.073196 0.093732 -0.992903
vn 0.066060 0.117729 -0.990846
vn 0.104832 -0.015334 -0.994372
vn -0.081603 0.379547 -0.921567
vn -0.118586 0.423445 -0.898127
vn -0.396810 0.590705 0.702574
vn -0.431652 0.595996 0.677101
vn -0.454426 0.600982 -0.657508
vn -0.504799 0.603529 -0.617196
vn 0.900912 0.140166 0.410744
vn 0.899952 0.147330 0.410341
vn 0.753630 0.558511 0.346566
vn 0.317443 0.936234 0.150651
vn 0.910148 -0.000002 0.414283
vn 0.910148 -0.000002 0.414283
vn 0.900732 0.140069 -0.411172
vn 0.899309 0.150468 -0.410612
vn 0.910148 -0.000002 -0.414283
vn 0.910148 -0.000002 -0.414283
vn -0.732172 -0.022864 0.680736
vn -0.732172 -0.022864 0.680736
vn -0.732172 -0.022864 0.680736
vn -0.732172 -0.022864 0.680736
vn -0.732172 -0.022864 0.680736
vn -0.781919 -0.009366 -0.623310
vn -0.781919 -0.009366 -0.623310
vn -0.781919 -0.009366 -0.623310
vn -0.781919 -0.009366 -0.623310
vn -0.781919 -0.009366 -0.623310
vn 0.754478 0.555959 -0.348817
vn 0.314888 0.936264 -0.155741
vn -0.082057 0.995597 -0.045308
vn -0.662488 0.663865 -0.346977
vn -0.062413 0.996785 0.050240
vn -0.628491 0.662536 0.407487
s 1
g SM_DogMat_Small
usemtl initialShadingGroup
f 3/94/1 4/3/2 5/24/3 2/23/4
f 2/23/4 5/24/3 6/11/5 1/6/6
f 9/4/7 10/5/8 11/26/9 8/25/10
f 8/25/10 11/26/9 12/12/11 7/8/12
f 15/10/13 16/7/14 17/29/15 14/27/16
f 14/28/16 17/29/15 18/13/17 13/1/18
f 21/9/19 22/2/20 23/31/21 20/30/22
f 20/93/22 23/31/21 24/14/23 19/95/24
f 13/1/18 18/13/17 22/2/20 21/9/19
f 19/95/24 24/14/23 4/3/2 3/94/1
s 2
f 3/94/25 113/138/26 111/96/27 107/114/28 19/95/29
f 9/4/30 32/74/31 33/65/32 1/6/33
s 1
f 9/4/7 1/6/6 6/11/5 10/5/8
f 15/10/13 7/8/12 12/12/11 16/7/14
s 2
f 13/1/34 21/9/35 26/67/36 27/61/37
f 7/8/38 15/10/39 29/70/40 30/63/41
s 6
f 6/11/42 37/16/43 39/17/44 10/5/45
f 12/12/46 38/18/47 42/19/48 16/7/49
f 18/13/50 41/20/51 45/21/52 22/2/53
f 24/14/54 44/22/55 35/15/56 4/3/57
f 44/22/55 46/35/58 45/21/52 41/20/51 43/34/59 42/19/48 38/18/47 40/33/60 39/17/44 37/16/43 36/32/61 35/15/56
s 2
f 1/6/33 33/65/32 34/131/62 2/23/63
f 2/23/63 34/131/62 112/132/64 113/138/26 3/94/25
s 6
f 4/3/57 35/15/56 36/32/61 5/24/65
f 5/24/65 36/32/61 37/16/43 6/11/42
s 2
f 7/8/38 30/63/41 31/72/66 8/25/67
f 8/25/67 31/72/66 32/74/31 9/4/30
s 6
f 10/5/45 39/17/44 40/33/60 11/26/68
f 11/26/68 40/33/60 38/18/47 12/12/46
s 2
f 13/1/34 27/61/37 28/68/69 14/28/70
f 14/27/70 28/68/69 29/70/40 15/10/39
s 6
f 16/7/49 42/19/48 43/34/59 17/29/71
f 17/29/71 43/34/59 41/20/51 18/13/50
s 2
f 19/95/29 108/99/72 25/129/73 20/93/74
f 20/30/74 25/129/73 26/67/36 21/9/35
s 6
f 22/2/53 45/21/52 46/35/58 23/31/75
f 23/31/75 46/35/58 44/22/55 24/14/54
s 2
f 59/85/76 60/78/77 61/54/78 58/53/79
f 58/53/79 61/54/78 62/43/80 57/37/81
f 65/89/82 66/80/83 67/56/84 64/55/85
f 64/55/85 67/56/84 68/47/86 63/39/87
f 71/92/88 72/82/89 73/58/90 70/57/91
f 70/57/91 73/58/90 74/51/92 69/41/93
f 50/44/94 57/37/81 62/43/80 48/36/95
f 53/48/96 63/39/87 68/47/86 49/38/97
f 55/52/98 69/41/93 74/51/92 52/40/99
f 48/36/95 62/43/80 75/108/100 47/42/101
f 51/46/102 78/45/103 57/37/81 50/44/94
f 49/38/97 68/47/86 78/45/103 51/46/102
f 54/50/104 81/49/105 63/39/87 53/48/96
f 52/40/99 74/51/92 81/49/105 54/50/104
f 56/98/106 84/113/107 69/41/93 55/52/98
f 57/37/81 78/45/103 79/59/108 58/53/79
f 58/53/79 79/59/108 80/87/109 59/85/76
f 63/39/87 81/49/105 82/60/110 64/55/85
f 64/55/85 82/60/110 83/91/111 65/89/82
f 69/41/93 84/113/107 85/121/112 70/57/91
f 70/57/91 85/121/112 86/123/113 71/92/88
f 60/78/77 77/135/114 76/110/115 61/54/78
f 61/54/78 76/110/115 75/108/100 62/43/80
f 66/80/83 80/87/109 79/59/108 67/56/84
f 67/56/84 79/59/108 78/45/103 68/47/86
f 72/82/89 83/91/111 82/60/110 73/58/90
f 73/58/90 82/60/110 81/49/105 74/51/92
f 87/69/116 89/62/117 90/83/118 88/77/119
f 88/77/119 102/84/120 101/71/121 87/69/116
f 89/62/117 99/130/122 100/126/123 90/83/118
f 91/73/124 93/64/125 94/86/126 92/79/127
f 92/79/127 104/88/128 103/75/129 91/73/124
f 93/64/125 101/71/121 102/84/120 94/86/126
f 95/76/130 97/66/131 98/90/132 96/81/133
f 96/81/133 106/136/134 105/127/135 95/76/130
f 97/66/131 103/75/129 104/88/128 98/90/132
f 26/67/36 89/62/117 87/69/116 27/61/37
f 29/70/40 93/64/125 91/73/124 30/63/41
f 32/74/31 97/66/131 95/76/130 33/65/32
f 25/129/73 99/130/122 89/62/117 26/67/36
f 27/61/37 87/69/116 101/71/121 28/68/69
f 28/68/69 101/71/121 93/64/125 29/70/40
f 30/63/41 91/73/124 103/75/129 31/72/66
f 31/72/66 103/75/129 97/66/131 32/74/31
f 33/65/32 95/76/130 105/127/135 34/131/62
f 90/83/118 60/78/77 59/85/76 88/77/119
f 94/86/126 66/80/83 65/89/82 92/79/127
f 98/90/132 72/82/89 71/92/88 96/81/133
f 100/126/123 77/135/114 60/78/77 90/83/118
f 88/77/119 59/85/76 80/87/109 102/84/120
f 102/84/120 80/87/109 66/80/83 94/86/126
f 92/79/127 65/89/82 83/91/111 104/88/128
f 104/88/128 83/91/111 72/82/89 98/90/132
f 96/81/133 71/92/88 86/123/113 106/136/134
s 13
f 116/101/136 107/114/137 111/96/138 121/119/139 122/139/140 118/97/141
f 123/103/142 56/98/143 55/52/144 52/40/145 54/50/146 53/48/147 49/38/148 51/46/149 50/44/150 48/36/151 47/42/152 117/111/153 118/97/141 122/139/140
s 2
f 107/114/28 109/115/154 110/125/155 108/99/72
f 109/115/154 128/116/156 129/134/157 110/125/155
s 15
f 112/132/158 115/133/159 114/100/160 111/96/161
f 115/133/159 137/128/162 136/106/163 114/100/160
s 2
f 117/111/164 120/112/165 119/102/166 116/101/167
f 120/112/165 130/107/168 131/104/169 119/102/166
s 15
f 121/119/170 124/120/171 125/122/172 123/103/173
f 124/120/171 132/117/174 133/124/175 125/122/172
s 2
f 126/105/176 131/104/169 130/107/168 127/109/177
f 127/109/177 129/134/157 128/116/156 126/105/176
s 15
f 132/117/174 134/118/178 135/137/179 133/124/175
f 134/118/178 136/106/163 137/128/162 135/137/179
s 2
f 120/112/180 75/108/181 76/110/115 130/107/182
f 130/107/182 76/110/115 77/135/114 127/109/183
f 47/42/184 75/108/181 120/112/180 117/111/185
f 125/122/186 84/113/187 56/98/188 123/103/189
s 13
f 131/104/190 126/105/191 128/116/192 109/115/193 107/114/137 116/101/136 119/102/194
f 132/117/195 124/120/196 121/119/139 111/96/138 114/100/197 136/106/198 134/118/199
s 2
f 84/113/187 125/122/186 133/124/200 85/121/112
f 85/121/112 133/124/200 135/137/201 86/123/113
f 129/134/202 100/126/123 99/130/122 110/125/203
f 106/136/134 137/128/204 115/133/205 105/127/135
f 110/125/203 99/130/122 25/129/73 108/99/72
f 34/131/62 105/127/135 115/133/205 112/132/64
f 129/134/202 127/109/183 77/135/114 100/126/123
f 106/136/134 86/123/113 135/137/201 137/128/204
f 107/114/28 108/99/72 19/95/29
f 111/96/27 113/138/26 112/132/64
s 13
f 116/101/136 118/97/141 117/111/153
f 121/119/139 123/103/142 122/139/140
