# This file uses centimeters as units for non-parametric coordinates.

mtllib SM_DogMat_Large.mtl
g default
v -0.777151 0.049659 1.601864
v -0.978577 0.049659 1.541366
v -1.061222 0.049659 1.395604
v -1.002810 0.000000 1.388359
v -0.914703 0.000000 1.523579
v -0.701997 0.000000 1.579591
v 1.061222 0.049659 1.395604
v 0.978577 0.049659 1.541366
v 0.777151 0.049659 1.601864
v 0.701997 0.000000 1.579591
v 0.914703 0.000000 1.523579
v 1.002810 0.000000 1.388359
v 0.806366 0.049659 -1.619038
v 0.970460 0.049659 -1.539365
v 1.039554 0.049659 -1.346619
v 1.002810 0.000000 -1.364231
v 0.922395 0.000000 -1.516513
v 0.728256 0.000000 -1.579591
v -1.039554 0.049661 -1.381400
v -0.970460 0.049659 -1.539365
v -0.806366 0.049659 -1.619038
v -0.728256 0.000000 -1.579591
v -0.922395 0.000000 -1.516513
v -1.002810 0.000000 -1.364231
v -0.945456 0.099317 -1.554429
v -0.746464 0.099317 -1.619083
v 0.746464 0.099317 -1.619083
v 0.945456 0.099317 -1.554429
v 1.027882 0.099317 -1.398338
v 1.027882 0.099317 1.423070
v 0.937572 0.099317 1.561672
v 0.719548 0.099317 1.619083
v -0.719548 0.099317 1.619083
v -0.937572 0.099317 1.561672
v -0.883132 0.029627 1.240553
v -0.809165 0.029627 1.403053
v -0.630592 0.029627 1.470364
v 0.883132 0.029627 1.240553
v 0.630592 0.029627 1.470364
v 0.809165 0.029627 1.403053
v 0.630592 0.029627 -1.470364
v 0.883132 0.029627 -1.240553
v 0.809165 0.029627 -1.403053
v -0.883132 0.029627 -1.240553
v -0.630592 0.029627 -1.470364
v -0.809165 0.029627 -1.403053
v -0.809165 0.069691 -1.403053
v -0.630592 0.069691 -1.470364
v 0.883132 0.069691 -1.240553
v 0.630592 0.069691 -1.470364
v 0.809165 0.069691 -1.403053
v 0.630592 0.069691 1.470364
v 0.883132 0.069691 1.240553
v 0.809165 0.069691 1.403053
v -0.630592 0.069691 1.470364
v -0.809165 0.069691 1.403053
v 0.630592 0.115560 -1.470364
v 0.638899 0.157333 -1.479653
v 0.659884 0.179236 -1.503124
v -0.659884 0.179236 -1.503124
v -0.638899 0.157333 -1.479653
v -0.630592 0.115560 -1.470364
v 0.883132 0.109961 1.240553
v 0.891653 0.155212 1.251076
v 0.912965 0.177736 1.277397
v 0.915590 0.178385 -1.274094
v 0.892376 0.155967 -1.250106
v 0.883132 0.111814 -1.240553
v -0.630592 0.117108 1.470364
v -0.637116 0.158003 1.480344
v -0.653666 0.179924 1.505659
v 0.653666 0.179924 1.505659
v 0.637116 0.158003 1.480344
v 0.630592 0.117108 1.470364
v -0.809165 0.116607 -1.403053
v -0.818438 0.157501 -1.412345
v -0.841788 0.178886 -1.435742
v 0.809165 0.116607 -1.403053
v 0.818438 0.157501 -1.412345
v 0.841788 0.178886 -1.435742
v 0.809165 0.117294 1.403053
v 0.817923 0.157725 1.413055
v 0.839970 0.178998 1.438234
v -0.809165 0.117294 1.403053
v -0.818170 0.157796 1.413338
v -0.840843 0.179243 1.439230
v 0.735793 0.158303 -1.595940
v 0.699821 0.191351 -1.547789
v -0.735793 0.158303 -1.595940
v -0.702954 0.192302 -1.551293
v 1.015344 0.149652 1.405713
v 0.973562 0.192737 1.352238
v 1.013968 0.155178 -1.379410
v 0.960522 0.191948 -1.349366
v -0.709207 0.158628 1.595813
v -0.680514 0.191064 1.546728
v 0.709207 0.158628 1.595813
v 0.682117 0.191729 1.549181
v -0.931719 0.159280 -1.531842
v -0.893804 0.192497 -1.487864
v 0.931633 0.159652 -1.531703
v 0.893546 0.192429 -1.487606
v 0.923807 0.159910 1.538743
v 0.888377 0.192587 1.493515
v -0.923807 0.159910 1.538743
v -0.889142 0.192801 1.494387
v -1.012277 0.073021 -1.381329
v -1.017749 0.099317 -1.417528
v -1.003256 0.133532 -1.368874
v -1.002558 0.157942 -1.398778
v -1.013542 0.073280 1.404988
v -1.015950 0.099317 1.441382
v -1.055238 0.058572 1.412157
v -1.002954 0.138894 1.390328
v -1.000426 0.158920 1.421870
v -0.908054 0.074791 -1.267719
v -0.868487 0.069691 -1.272727
v -0.883132 0.069691 -1.223453
v -0.907997 0.108595 -1.267656
v -0.868594 0.117386 -1.272491
v -0.907276 0.074632 1.270996
v -0.883132 0.069691 1.223453
v -0.867530 0.069691 1.274830
v -0.906589 0.107495 1.270129
v -0.867675 0.117350 1.274511
v -0.923579 0.142323 -1.283411
v -0.905211 0.178887 -1.302290
v -0.974242 0.160460 -1.336089
v -0.961017 0.192700 -1.358217
v -0.879168 0.157707 -1.280601
v -0.913549 0.133587 -1.273116
v -0.912308 0.132530 1.277066
v -0.877951 0.157581 1.283542
v -0.920648 0.144082 1.287305
v -0.903132 0.178567 1.307572
v -0.977785 0.159407 1.358231
v -0.962841 0.193460 1.378698
vt 0.597162 0.625000
vt 0.409223 0.500000
vt 0.375000 0.265133
vt 0.591399 0.125000
vt 0.587504 0.250000
vt 0.408601 0.125000
vt 0.625000 0.482958
vt 0.641022 0.125000
vt 0.402838 0.625000
vt 0.853839 0.125000
vt 0.412496 0.250000
vt 0.625000 0.265133
vt 0.590777 0.500000
vt 0.375000 0.482958
vt 0.375000 0.269537
vt 0.410745 0.250000
vt 0.589255 0.250000
vt 0.625000 0.269537
vt 0.625000 0.480463
vt 0.589255 0.500000
vt 0.410745 0.500000
vt 0.375000 0.480463
vt 0.375000 0.125000
vt 0.375000 0.250000
vt 0.625000 0.125000
vt 0.625000 0.250000
vt 0.875000 0.125000
vt 0.625000 0.625000
vt 0.625000 0.500000
vt 0.375000 0.625000
vt 0.375000 0.500000
vt 0.375000 0.250000
vt 0.625000 0.250000
vt 0.625000 0.500000
vt 0.375000 0.500000
vt 0.410745 0.750000
vt 0.589255 0.750000
vt 0.625000 0.769537
vt 0.625000 0.980463
vt 0.589255 1.000000
vt 0.410745 1.000000
vt 0.375000 0.750000
vt 0.410745 0.750000
vt 0.589255 0.750000
vt 0.625000 0.750000
vt 0.625000 0.750000
vt 0.625000 0.769537
vt 0.625000 0.980463
vt 0.625000 1.000000
vt 0.625000 1.000000
vt 0.589255 1.000000
vt 0.410745 1.000000
vt 0.589255 0.750000
vt 0.410745 0.750000
vt 0.625000 0.980463
vt 0.625000 0.769537
vt 0.410745 1.000000
vt 0.589255 1.000000
vt 0.625000 0.750000
vt 0.625000 1.000000
vt 0.590777 0.750000
vt 0.409223 0.750000
vt 0.625000 0.984867
vt 0.625000 0.767042
vt 0.412496 1.000000
vt 0.587504 1.000000
vt 0.409223 0.750000
vt 0.625000 0.750000
vt 0.590777 0.750000
vt 0.625000 0.767042
vt 0.625000 0.750000
vt 0.625000 1.000000
vt 0.625000 0.984867
vt 0.587504 1.000000
vt 0.625000 1.000000
vt 0.412496 1.000000
vt 0.590334 0.750000
vt 0.410289 0.750000
vt 0.625000 0.983791
vt 0.625000 0.768860
vt 0.411969 1.000000
vt 0.588689 1.000000
vt 0.409617 0.750000
vt 0.625000 0.750000
vt 0.589712 0.750000
vt 0.625000 0.765430
vt 0.625000 0.750000
vt 0.625000 1.000000
vt 0.625000 0.981561
vt 0.587991 1.000000
vt 0.625000 1.000000
vt 0.411311 1.000000
vt 0.125000 0.125000
vt 0.358978 0.125000
vt 0.146172 0.125032
vt 0.382560 0.930655
vt 0.375000 0.770991
vt 0.375000 1.000000
vt 0.375000 0.764947
vt 0.375000 0.984392
vt 0.375000 0.769107
vt 0.375000 0.769108
vt 0.375000 0.984584
vt 0.375000 0.768986
vt 0.375000 0.768824
vt 0.375000 0.983592
vt 0.375000 0.765923
vt 0.375000 0.750000
vt 0.375000 0.765740
vt 0.375000 0.750000
vt 0.375000 0.765669
vt 0.375000 0.765697
vt 0.375000 1.000000
vt 0.353087 0.725487
vt 0.375000 0.767331
vt 0.375000 0.767831
vt 0.375000 0.981404
vt 0.375000 0.981609
vt 0.375000 0.981198
vt 0.375000 0.981177
vt 0.375000 1.000000
vt 0.375000 0.984546
vt 0.375000 1.000000
vt 0.375000 0.984277
vt 0.375000 0.764793
vt 0.375000 0.750000
vt 0.375000 1.000000
vt 0.375000 0.986508
vt 0.375000 0.750000
vt 0.375000 0.750000
vt 0.375000 1.000000
vt 0.375000 0.986866
vt 0.375000 0.987011
vt 0.375000 0.764875
vt 0.375000 0.750000
vt 0.375000 1.000000
vt 0.375000 0.984757
vt 0.361854 0.279331
vt 0.375000 0.979009
vn -0.715401 -0.698538 0.015647
vn -0.713352 -0.700483 0.021267
vn -0.344936 -0.688287 0.638185
vn -0.456096 -0.738977 0.495872
vn -0.010414 -0.419929 0.907497
vn -0.084009 -0.492606 0.866188
vn 0.084009 -0.492606 0.866188
vn 0.010414 -0.419929 0.907497
vn 0.344936 -0.688287 0.638186
vn 0.456096 -0.738977 0.495872
vn 0.713757 -0.700066 0.021407
vn 0.715825 -0.698102 0.015753
vn 0.723403 -0.690284 -0.014041
vn 0.724758 -0.688273 -0.031724
vn 0.449381 -0.715907 -0.534353
vn 0.525684 -0.701329 -0.481451
vn 0.012768 -0.628592 -0.777631
vn 0.079367 -0.660583 -0.746546
vn -0.079367 -0.660582 -0.746547
vn -0.012768 -0.628592 -0.777631
vn -0.420123 -0.733880 -0.533776
vn -0.489119 -0.728612 -0.479465
vn -0.720310 -0.693396 -0.018839
vn -0.719657 -0.693887 -0.024795
vn -0.535591 0.844472 0.002958
vn -0.564397 0.824637 0.037811
vn -0.529854 0.848056 -0.007468
vn -0.540315 0.841456 0.003340
vn -0.550314 0.834783 -0.017113
vn 0.085783 -0.257999 0.962329
vn 0.023292 -0.019745 0.999534
vn -0.023292 -0.019745 0.999534
vn -0.085783 -0.257999 0.962329
vn 0.111614 0.052073 -0.992386
vn -0.111614 0.052073 -0.992386
vn -0.025871 0.168894 -0.985295
vn 0.025922 0.168941 -0.985285
vn 0.911079 0.412130 0.009161
vn 0.913614 0.406425 -0.011332
vn 0.953076 0.298461 -0.050657
vn 0.942401 0.331518 0.044449
vn 0.016731 -0.968990 -0.246532
vn 0.000170 -0.999980 -0.006307
vn -0.000170 -0.999980 -0.006307
vn -0.016731 -0.968990 -0.246532
vn -0.224683 -0.974295 -0.016304
vn -0.013225 -0.999913 -0.000182
vn -0.012827 -0.999918 0.000187
vn -0.227825 -0.973600 0.014100
vn -0.020346 -0.969981 0.242330
vn -0.000160 -0.999977 0.006739
vn 0.000160 -0.999977 0.006739
vn 0.020346 -0.969981 0.242330
vn 0.227825 -0.973600 0.014100
vn 0.012827 -0.999918 0.000187
vn 0.013225 -0.999913 -0.000182
vn 0.224683 -0.974295 -0.016304
vn 0.001050 -0.999999 0.001260
vn -0.001050 -0.999999 0.001260
vn -0.001007 -0.999999 -0.001305
vn 0.001007 -0.999999 -0.001305
vn -0.451292 0.217084 0.865570
vn -0.665609 0.215796 0.714420
vn -0.788751 0.373608 0.488148
vn 0.113920 -0.983495 -0.140572
vn 0.462694 0.223407 0.857907
vn 0.681761 0.234730 0.692895
vn -0.113920 -0.983495 -0.140572
vn 0.574436 0.284407 -0.767552
vn 0.772976 0.114393 -0.624038
vn -0.121104 -0.983371 0.135335
vn -0.892502 0.269476 -0.361696
vn -0.547938 0.303734 -0.779429
vn -0.730488 0.200602 -0.652799
vn 0.121104 -0.983371 0.135335
vn -0.017438 0.931993 0.362056
vn 0.017575 0.932151 0.361644
vn 0.036626 0.521780 0.852294
vn -0.036626 0.521780 0.852293
vn 0.042893 0.114792 0.992463
vn -0.042893 0.114792 0.992463
vn -0.341629 0.939783 -0.009919
vn -0.343908 0.938959 0.009122
vn -0.871095 0.490627 0.021861
vn -0.869035 0.494257 -0.022077
vn -0.993465 0.111211 0.025664
vn -0.993469 0.111252 -0.025363
vn 0.017923 0.926278 -0.376415
vn -0.018058 0.926417 -0.376065
vn -0.036542 0.544041 -0.838263
vn 0.036453 0.544582 -0.837915
vn -0.043715 0.120815 -0.991712
vn 0.043688 0.121046 -0.991685
vn -0.047166 0.000000 0.998887
vn 0.047166 0.000000 0.998887
vn -0.999559 0.000000 -0.029706
vn -0.999548 0.000000 0.030074
vn 0.046781 0.000000 -0.998905
vn -0.046781 0.000000 -0.998905
vn 0.349283 0.139180 0.926623
vn 0.352712 0.000000 0.935732
vn -0.666737 0.000000 0.745293
vn -0.661775 0.154417 0.733627
vn -0.661053 0.000000 -0.750339
vn -0.660920 0.155148 -0.734244
vn 0.352713 0.000000 -0.935732
vn 0.347754 0.142622 -0.926675
vn -0.524643 0.623183 0.579993
vn -0.186619 0.958825 0.214077
vn -0.521211 0.626586 -0.579421
vn -0.176820 0.961030 -0.212499
vn 0.479453 0.646556 -0.593372
vn 0.168523 0.960779 -0.220234
vn 0.175039 0.960381 0.216862
vn 0.491122 0.633444 0.597953
vn 0.034495 0.560734 -0.827277
vn -0.034402 0.560171 -0.827663
vn -0.003531 0.932535 -0.361063
vn 0.004178 0.932204 -0.361909
vn 0.148304 0.970124 -0.192005
vn 0.479852 0.639066 -0.601113
vn -0.470197 0.628063 -0.620042
vn -0.142162 0.969879 -0.197802
vn 0.889445 0.456114 0.029129
vn 0.872222 0.488602 -0.022283
vn 0.469913 0.882701 -0.004634
vn 0.466660 0.884432 0.002872
vn 0.139387 0.968636 0.205708
vn 0.421429 0.638898 0.643589
vn -0.029632 0.574573 0.817917
vn 0.029647 0.574591 0.817904
vn 0.003532 0.942633 0.333812
vn -0.003928 0.942451 0.334320
vn -0.114827 0.969495 0.216550
vn -0.404240 0.628173 0.664822
vn 0.012149 0.999859 0.011621
vn -0.015669 0.999180 0.037330
vn -0.028480 0.998702 -0.042228
vn 0.009469 0.999882 -0.012135
vn 0.001443 0.999999 -0.000003
vn 0.001418 0.999999 0.000001
vn 0.000010 1.000000 -0.000003
vn 0.000000 1.000000 0.000000
vn 0.000000 1.000000 0.000000
vn 0.000000 1.000000 0.000000
vn 0.000000 1.000000 0.000000
vn 0.000000 1.000000 0.000000
vn 0.000000 1.000000 0.000000
vn 0.000000 1.000000 0.000000
vn 0.000000 1.000000 0.000000
vn 0.000000 1.000000 0.000000
vn 0.000000 1.000000 0.000000
vn 0.000009 1.000000 0.000003
vn -0.913153 0.314938 0.258779
vn -0.897238 0.347252 0.272727
vn -0.619002 0.576901 0.532938
vn -0.624152 0.575578 0.528342
vn -0.978235 0.172540 -0.115266
vn -0.917833 0.345042 -0.196287
vn -0.919406 0.341715 -0.194738
vn -0.978235 0.172540 -0.115266
vn -0.648775 0.588072 -0.482972
vn -0.647969 0.588254 -0.483832
vn 0.123846 -0.003549 0.992295
vn 0.095540 0.106623 0.989699
vn 0.099709 0.090777 0.990867
vn 0.123846 -0.003549 0.992295
vn -0.095030 0.403269 0.910134
vn -0.065395 0.370505 0.926526
vn 0.104819 -0.015352 -0.994373
vn 0.073178 0.093728 -0.992905
vn 0.066041 0.117728 -0.990847
vn 0.104819 -0.015352 -0.994373
vn -0.081617 0.379547 -0.921565
vn -0.118595 0.423440 -0.898128
vn -0.396805 0.590714 0.702569
vn -0.431649 0.596004 0.677096
vn -0.454435 0.600971 -0.657512
vn -0.504809 0.603519 -0.617197
vn 0.900914 0.140167 0.410740
vn 0.899954 0.147333 0.410337
vn 0.753630 0.558512 0.346564
vn 0.317445 0.936233 0.150652
vn 0.910150 -0.000004 0.414278
vn 0.910150 -0.000004 0.414278
vn 0.900733 0.140065 -0.411172
vn 0.899310 0.150464 -0.410612
vn 0.910149 -0.000000 -0.414282
vn 0.910148 -0.000000 -0.414282
vn -0.732171 -0.022868 0.680737
vn -0.732171 -0.022868 0.680737
vn -0.732171 -0.022868 0.680737
vn -0.732171 -0.022868 0.680737
vn -0.732171 -0.022868 0.680737
vn -0.781915 -0.009366 -0.623314
vn -0.781915 -0.009366 -0.623314
vn -0.781915 -0.009366 -0.623314
vn -0.781915 -0.009366 -0.623314
vn -0.781915 -0.009366 -0.623314
vn 0.754477 0.555960 -0.348816
vn 0.314886 0.936265 -0.155740
vn -0.082060 0.995597 -0.045310
vn -0.662486 0.663868 -0.346975
vn -0.062413 0.996785 0.050240
vn -0.628494 0.662532 0.407488
s 1
g SM_DogMat_Large
usemtl initialShadingGroup
f 3/94/1 4/3/2 5/24/3 2/23/4
f 2/23/4 5/24/3 6/11/5 1/6/6
f 9/4/7 10/5/8 11/26/9 8/25/10
f 8/25/10 11/26/9 12/12/11 7/8/12
f 15/10/13 16/7/14 17/29/15 14/27/16
f 14/28/16 17/29/15 18/13/17 13/1/18
f 21/9/19 22/2/20 23/31/21 20/30/22
f 20/93/22 23/31/21 24/14/23 19/95/24
f 13/1/18 18/13/17 22/2/20 21/9/19
f 19/95/24 24/14/23 4/3/2 3/94/1
s 2
f 3/94/25 113/138/26 111/96/27 107/114/28 19/95/29
f 9/4/30 32/74/31 33/65/32 1/6/33
s 1
f 9/4/7 1/6/6 6/11/5 10/5/8
f 15/10/13 7/8/12 12/12/11 16/7/14
s 2
f 13/1/34 21/9/35 26/67/36 27/61/37
f 7/8/38 15/10/39 29/70/40 30/63/41
s 6
f 6/11/42 37/16/43 39/17/44 10/5/45
f 12/12/46 38/18/47 42/19/48 16/7/49
f 18/13/50 41/20/51 45/21/52 22/2/53
f 24/14/54 44/22/55 35/15/56 4/3/57
f 44/22/55 46/35/58 45/21/52 41/20/51 43/34/59 42/19/48 38/18/47 40/33/60 39/17/44 37/16/43 36/32/61 35/15/56
s 2
f 1/6/33 33/65/32 34/131/62 2/23/63
f 2/23/63 34/131/62 112/132/64 113/138/26 3/94/25
s 6
f 4/3/57 35/15/56 36/32/61 5/24/65
f 5/24/65 36/32/61 37/16/43 6/11/42
s 2
f 7/8/38 30/63/41 31/72/66 8/25/67
f 8/25/67 31/72/66 32/74/31 9/4/30
s 6
f 10/5/45 39/17/44 40/33/60 11/26/68
f 11/26/68 40/33/60 38/18/47 12/12/46
s 2
f 13/1/34 27/61/37 28/68/69 14/28/70
f 14/27/70 28/68/69 29/70/40 15/10/39
s 6
f 16/7/49 42/19/48 43/34/59 17/29/71
f 17/29/71 43/34/59 41/20/51 18/13/50
s 2
f 19/95/29 108/99/72 25/129/73 20/93/74
f 20/30/74 25/129/73 26/67/36 21/9/35
s 6
f 22/2/53 45/21/52 46/35/58 23/31/75
f 23/31/75 46/35/58 44/22/55 24/14/54
s 2
f 59/85/76 60/78/77 61/54/78 58/53/79
f 58/53/79 61/54/78 62/43/80 57/37/81
f 65/89/82 66/80/83 67/56/84 64/55/85
f 64/55/85 67/56/84 68/47/86 63/39/87
f 71/92/88 72/82/89 73/58/90 70/57/91
f 70/57/91 73/58/90 74/51/92 69/41/93
f 50/44/94 57/37/81 62/43/80 48/36/95
f 53/48/96 63/39/87 68/47/86 49/38/97
f 55/52/98 69/41/93 74/51/92 52/40/99
f 48/36/95 62/43/80 75/108/100 47/42/101
f 51/46/102 78/45/103 57/37/81 50/44/94
f 49/38/97 68/47/86 78/45/103 51/46/102
f 54/50/104 81/49/105 63/39/87 53/48/96
f 52/40/99 74/51/92 81/49/105 54/50/104
f 56/98/106 84/113/107 69/41/93 55/52/98
f 57/37/81 78/45/103 79/59/108 58/53/79
f 58/53/79 79/59/108 80/87/109 59/85/76
f 63/39/87 81/49/105 82/60/110 64/55/85
f 64/55/85 82/60/110 83/91/111 65/89/82
f 69/41/93 84/113/107 85/121/112 70/57/91
f 70/57/91 85/121/112 86/123/113 71/92/88
f 60/78/77 77/135/114 76/110/115 61/54/78
f 61/54/78 76/110/115 75/108/100 62/43/80
f 66/80/83 80/87/109 79/59/108 67/56/84
f 67/56/84 79/59/108 78/45/103 68/47/86
f 72/82/89 83/91/111 82/60/110 73/58/90
f 73/58/90 82/60/110 81/49/105 74/51/92
f 87/69/116 89/62/117 90/83/118 88/77/119
f 88/77/119 102/84/120 101/71/121 87/69/116
f 89/62/117 99/130/122 100/126/123 90/83/118
f 91/73/124 93/64/125 94/86/126 92/79/127
f 92/79/127 104/88/128 103/75/129 91/73/124
f 93/64/125 101/71/121 102/84/120 94/86/126
f 95/76/130 97/66/131 98/90/132 96/81/133
f 96/81/133 106/136/134 105/127/135 95/76/130
f 97/66/131 103/75/129 104/88/128 98/90/132
f 26/67/36 89/62/117 87/69/116 27/61/37
f 29/70/40 93/64/125 91/73/124 30/63/41
f 32/74/31 97/66/131 95/76/130 33/65/32
f 25/129/73 99/130/122 89/62/117 26/67/36
f 27/61/37 87/69/116 101/71/121 28/68/69
f 28/68/69 101/71/121 93/64/125 29/70/40
f 30/63/41 91/73/124 103/75/129 31/72/66
f 31/72/66 103/75/129 97/66/131 32/74/31
f 33/65/32 95/76/130 105/127/135 34/131/62
f 90/83/118 60/78/77 59/85/76 88/77/119
f 94/86/126 66/80/83 65/89/82 92/79/127
f 98/90/132 72/82/89 71/92/88 96/81/133
f 100/126/123 77/135/114 60/78/77 90/83/118
f 88/77/119 59/85/76 80/87/109 102/84/120
f 102/84/120 80/87/109 66/80/83 94/86/126
f 92/79/127 65/89/82 83/91/111 104/88/128
f 104/88/128 83/91/111 72/82/89 98/90/132
f 96/81/133 71/92/88 86/123/113 106/136/134
s 13
f 116/101/136 107/114/137 111/96/138 121/119/139 122/139/140 118/97/141
f 123/103/142 56/98/143 55/52/144 52/40/145 54/50/146 53/48/147 49/38/148 51/46/149 50/44/150 48/36/151 47/42/152 117/111/153 118/97/141 122/139/140
s 2
f 107/114/28 109/115/154 110/125/155 108/99/72
f 109/115/154 128/116/156 129/134/157 110/125/155
s 15
f 112/132/158 115/133/159 114/100/160 111/96/161
f 115/133/159 137/128/162 136/106/163 114/100/160
s 2
f 117/111/164 120/112/165 119/102/166 116/101/167
f 120/112/165 130/107/168 131/104/169 119/102/166
s 15
f 121/119/170 124/120/171 125/122/172 123/103/173
f 124/120/171 132/117/174 133/124/175 125/122/172
s 2
f 126/105/176 131/104/169 130/107/168 127/109/177
f 127/109/177 129/134/157 128/116/156 126/105/176
s 15
f 132/117/174 134/118/178 135/137/179 133/124/175
f 134/118/178 136/106/163 137/128/162 135/137/179
s 2
f 120/112/180 75/108/181 76/110/115 130/107/182
f 130/107/182 76/110/115 77/135/114 127/109/183
f 47/42/184 75/108/181 120/112/180 117/111/185
f 125/122/186 84/113/187 56/98/188 123/103/189
s 13
f 131/104/190 126/105/191 128/116/192 109/115/193 107/114/137 116/101/136 119/102/194
f 132/117/195 124/120/196 121/119/139 111/96/138 114/100/197 136/106/198 134/118/199
s 2
f 84/113/187 125/122/186 133/124/200 85/121/112
f 85/121/112 133/124/200 135/137/201 86/123/113
f 129/134/202 100/126/123 99/130/122 110/125/203
f 106/136/134 137/128/204 115/133/205 105/127/135
f 110/125/203 99/130/122 25/129/73 108/99/72
f 34/131/62 105/127/135 115/133/205 112/132/64
f 129/134/202 127/109/183 77/135/114 100/126/123
f 106/136/134 86/123/113 135/137/201 137/128/204
f 107/114/28 108/99/72 19/95/29
f 111/96/27 113/138/26 112/132/64
s 13
f 116/101/136 118/97/141 117/111/153
f 121/119/139 123/103/142 122/139/140
