# This file uses centimeters as units for non-parametric coordinates.

mtllib SM_DoggyTreat.mtl
g default
v -0.023901 -0.023727 0.219886
v -0.107075 -0.023727 0.219886
v -0.107075 -0.023727 0.143404
v -0.023900 -0.023727 0.181645
v -0.120459 -0.000000 0.130020
v -0.120459 -0.000000 0.233270
v -0.068834 -0.023727 0.233270
v -0.023900 -0.000000 0.233270
v -0.120459 -0.023727 0.181645
v -0.068834 -0.023727 0.130020
v -0.068834 -0.000000 0.250479
v -0.068834 -0.023728 0.181645
v -0.068834 -0.000000 0.112811
v -0.137667 -0.000000 0.181645
v 0.023901 -0.023727 0.219886
v 0.107075 -0.023727 0.219886
v 0.107075 -0.023727 0.143404
v 0.023900 -0.023727 0.181645
v 0.120459 -0.000000 0.130020
v 0.120459 -0.000000 0.233270
v 0.068834 -0.023727 0.233270
v 0.023900 -0.000000 0.233270
v 0.120459 -0.023727 0.181645
v 0.068834 -0.023727 0.130020
v 0.068833 -0.000000 0.250479
v 0.068834 -0.023728 0.181645
v 0.068834 -0.000000 0.112811
v 0.137667 -0.000000 0.181645
v -0.000000 -0.000000 0.215698
v 0.000000 -0.023727 0.206869
v 0.000000 -0.023727 0.181645
v -0.023901 -0.023727 0.120870
v -0.043393 -0.023727 0.121330
v -0.043393 -0.000000 0.120870
v 0.023901 -0.023727 0.120870
v 0.043393 -0.000000 0.120870
v 0.043393 -0.023727 0.121330
v 0.000000 -0.023727 0.120870
v -0.023901 -0.023727 -0.219886
v -0.107075 -0.023727 -0.219886
v -0.107075 -0.023727 -0.143404
v -0.023900 -0.023727 -0.181645
v -0.120459 -0.000000 -0.130020
v -0.120459 -0.000000 -0.233270
v -0.068834 -0.023727 -0.233270
v -0.023900 -0.000000 -0.233270
v -0.120459 -0.023727 -0.181645
v -0.068834 -0.023727 -0.130020
v -0.068834 -0.000000 -0.250479
v -0.068834 -0.023728 -0.181645
v -0.068834 -0.000000 -0.112811
v -0.137667 -0.000000 -0.181645
v 0.023901 -0.023727 -0.219886
v 0.107075 -0.023727 -0.219886
v 0.107075 -0.023727 -0.143404
v 0.023900 -0.023727 -0.181645
v 0.120459 -0.000000 -0.130020
v 0.120459 -0.000000 -0.233270
v 0.068834 -0.023727 -0.233270
v 0.023900 -0.000000 -0.233270
v 0.120459 -0.023727 -0.181645
v 0.068834 -0.023727 -0.130020
v 0.068834 -0.000000 -0.250479
v 0.068834 -0.023728 -0.181645
v 0.068834 -0.000000 -0.112811
v 0.137667 -0.000000 -0.181645
v -0.000000 -0.000000 -0.215698
v 0.000000 -0.023727 -0.206869
v 0.000000 -0.023727 -0.181645
v -0.023901 -0.023727 -0.120870
v -0.043393 -0.023727 -0.121330
v -0.043393 -0.000000 -0.120870
v 0.023901 -0.023727 -0.120870
v 0.043393 -0.000000 -0.120870
v 0.043393 -0.023727 -0.121330
v 0.000000 -0.023727 -0.120870
v 0.023901 0.023727 0.219886
v 0.107075 0.023727 0.219886
v 0.107075 0.023727 0.143404
v 0.023900 0.023727 0.181645
v 0.068834 0.023727 0.233270
v 0.120459 0.023727 0.181645
v 0.068834 0.023727 0.130020
v 0.068834 0.023728 0.181645
v -0.023901 0.023727 0.219886
v -0.107075 0.023727 0.219886
v -0.107075 0.023727 0.143404
v -0.023900 0.023727 0.181645
v -0.068834 0.023727 0.233270
v -0.120459 0.023727 0.181645
v -0.068834 0.023727 0.130020
v -0.068834 0.023728 0.181645
v 0.000000 0.023727 0.206869
v 0.000000 0.023727 0.181645
v 0.023901 0.023727 0.120870
v 0.043393 0.023727 0.121330
v -0.023901 0.023727 0.120870
v -0.043393 0.023727 0.121330
v 0.000000 0.023727 0.120870
v 0.023901 0.023727 -0.219886
v 0.107075 0.023727 -0.219886
v 0.107075 0.023727 -0.143404
v 0.023900 0.023727 -0.181645
v 0.068834 0.023727 -0.233270
v 0.120459 0.023727 -0.181645
v 0.068834 0.023727 -0.130020
v 0.068834 0.023728 -0.181645
v -0.023901 0.023727 -0.219886
v -0.107075 0.023727 -0.219886
v -0.107075 0.023727 -0.143404
v -0.023900 0.023728 -0.181645
v -0.068834 0.023727 -0.233270
v -0.120459 0.023727 -0.181645
v -0.068834 0.023727 -0.130020
v -0.068834 0.023728 -0.181645
v 0.000000 0.023727 -0.206869
v 0.000000 0.023727 -0.181645
v 0.023901 0.023727 -0.120870
v 0.043393 0.023727 -0.121330
v -0.023901 0.023727 -0.120870
v -0.043393 0.023727 -0.121330
v 0.000000 0.023727 -0.120870
vt 0.375000 0.250000
vt 0.625000 0.250000
vt 0.625000 0.500000
vt 0.875000 0.250000
vt 0.500000 0.125000
vt 0.500000 0.375000
vt 0.500000 0.625000
vt 0.750000 0.125000
vt 0.625000 0.125000
vt 0.500000 0.250000
vt 0.375000 0.125000
vt 0.625000 0.375000
vt 0.750000 0.250000
vt 0.500000 0.500000
vt 0.375000 0.375000
vt 0.625000 0.625000
vt 0.875000 0.125000
vt 0.500000 0.125000
vt 0.375000 0.125000
vt 0.625000 0.125000
vt 0.625000 0.250000
vt 0.500000 0.250000
vt 0.375000 0.250000
vt 0.500000 0.375000
vt 0.375000 0.375000
vt 0.625000 0.375000
vt 0.625000 0.500000
vt 0.500000 0.500000
vt 0.500000 0.625000
vt 0.625000 0.625000
vt 0.750000 0.125000
vt 0.875000 0.125000
vt 0.875000 0.250000
vt 0.750000 0.250000
vt 0.375000 0.125000
vt 0.375000 0.250000
vt 0.375000 0.375000
vt 0.375000 0.500000
vt 0.500000 0.500000
vt 0.500000 0.625000
vt 0.500000 0.625000
vt 0.500000 0.500000
vt 0.375000 0.500000
vt 0.375000 0.500000
vt 0.000000 0.000000
vt 1.000000 0.000000
vt 0.000000 0.000000
vt 1.000000 0.000000
vt 0.000000 0.000000
vt 1.000000 0.000000
vt 0.000000 0.000000
vt 1.000000 0.000000
vt 0.000000 0.000000
vt 1.000000 0.000000
vt 0.000000 0.000000
vt 1.000000 0.000000
vt 0.500000 0.125000
vt 0.625000 0.125000
vt 0.625000 0.250000
vt 0.500000 0.250000
vt 0.375000 0.125000
vt 0.375000 0.250000
vt 0.500000 0.375000
vt 0.375000 0.375000
vt 0.625000 0.375000
vt 0.625000 0.500000
vt 0.500000 0.500000
vt 0.625000 0.625000
vt 0.500000 0.625000
vt 0.750000 0.125000
vt 0.875000 0.125000
vt 0.875000 0.250000
vt 0.750000 0.250000
vt 0.500000 0.125000
vt 0.500000 0.250000
vt 0.625000 0.250000
vt 0.625000 0.125000
vt 0.375000 0.125000
vt 0.375000 0.250000
vt 0.375000 0.375000
vt 0.500000 0.375000
vt 0.625000 0.375000
vt 0.500000 0.500000
vt 0.625000 0.500000
vt 0.375000 0.500000
vt 0.500000 0.500000
vt 0.500000 0.625000
vt 0.625000 0.625000
vt 0.750000 0.125000
vt 0.750000 0.250000
vt 0.875000 0.250000
vt 0.875000 0.125000
vt 0.375000 0.125000
vt 0.375000 0.250000
vt 0.375000 0.375000
vt 0.375000 0.500000
vt 0.375000 0.500000
vt 0.500000 0.625000
vt 0.500000 0.500000
vt 0.500000 0.625000
vt 0.000000 0.000000
vt 1.000000 0.000000
vt 0.000000 0.000000
vt 1.000000 0.000000
vt 0.000000 0.000000
vt 1.000000 0.000000
vt 0.000000 0.000000
vt 1.000000 0.000000
vt 0.000000 0.000000
vt 1.000000 0.000000
vt 0.000000 0.000000
vt 1.000000 0.000000
vt 0.500000 0.125000
vt 0.625000 0.125000
vt 0.625000 0.250000
vt 0.500000 0.250000
vt 0.375000 0.125000
vt 0.375000 0.250000
vt 0.500000 0.375000
vt 0.375000 0.375000
vt 0.625000 0.375000
vt 0.625000 0.500000
vt 0.500000 0.500000
vt 0.625000 0.625000
vt 0.500000 0.625000
vt 0.750000 0.125000
vt 0.875000 0.125000
vt 0.875000 0.250000
vt 0.750000 0.250000
vt 0.500000 0.125000
vt 0.500000 0.250000
vt 0.625000 0.250000
vt 0.625000 0.125000
vt 0.375000 0.125000
vt 0.375000 0.250000
vt 0.375000 0.375000
vt 0.500000 0.375000
vt 0.625000 0.375000
vt 0.500000 0.500000
vt 0.625000 0.500000
vt 0.375000 0.500000
vt 0.500000 0.500000
vt 0.500000 0.625000
vt 0.625000 0.625000
vt 0.750000 0.125000
vt 0.750000 0.250000
vt 0.875000 0.250000
vt 0.875000 0.125000
vt 0.375000 0.125000
vt 0.375000 0.250000
vt 0.375000 0.375000
vt 0.375000 0.500000
vt 0.375000 0.500000
vt 0.500000 0.625000
vt 0.500000 0.500000
vt 0.500000 0.625000
vt 0.000000 0.000000
vt 1.000000 0.000000
vt 0.000000 0.000000
vt 1.000000 0.000000
vt 0.000000 0.000000
vt 1.000000 0.000000
vt 0.000000 0.000000
vt 1.000000 0.000000
vt 0.000000 0.000000
vt 1.000000 0.000000
vt 0.000000 0.000000
vt 1.000000 0.000000
vt 0.500000 0.125000
vt 0.500000 0.250000
vt 0.625000 0.250000
vt 0.625000 0.125000
vt 0.375000 0.125000
vt 0.375000 0.250000
vt 0.375000 0.375000
vt 0.500000 0.375000
vt 0.625000 0.375000
vt 0.500000 0.500000
vt 0.625000 0.500000
vt 0.500000 0.625000
vt 0.625000 0.625000
vt 0.750000 0.125000
vt 0.750000 0.250000
vt 0.875000 0.250000
vt 0.875000 0.125000
vt 0.500000 0.125000
vt 0.625000 0.125000
vt 0.625000 0.250000
vt 0.500000 0.250000
vt 0.375000 0.125000
vt 0.375000 0.250000
vt 0.500000 0.375000
vt 0.375000 0.375000
vt 0.625000 0.375000
vt 0.625000 0.500000
vt 0.500000 0.500000
vt 0.375000 0.500000
vt 0.500000 0.500000
vt 0.625000 0.625000
vt 0.500000 0.625000
vt 0.750000 0.125000
vt 0.875000 0.125000
vt 0.875000 0.250000
vt 0.750000 0.250000
vt 0.375000 0.125000
vt 0.375000 0.250000
vt 0.375000 0.375000
vt 0.375000 0.500000
vt 0.375000 0.500000
vt 0.500000 0.500000
vt 0.500000 0.625000
vt 0.500000 0.625000
vt 0.000000 0.000000
vt 1.000000 0.000000
vt 0.000000 0.000000
vt 1.000000 0.000000
vt 0.000000 0.000000
vt 1.000000 0.000000
vt 0.000000 0.000000
vt 1.000000 0.000000
vt 0.000000 0.000000
vt 1.000000 0.000000
vt 0.000000 0.000000
vt 1.000000 0.000000
vn -0.003078 -0.000000 0.999995
vn -0.707106 -0.000000 0.707107
vn -0.557161 -0.615746 0.557161
vn -0.002138 -0.569618 0.821907
vn 0.390505 -0.000000 0.920601
vn 0.371182 -0.462056 0.805437
vn 0.000003 -1.000000 0.000001
vn 0.000003 -1.000000 0.000001
vn 0.000003 -1.000000 0.000001
vn 0.000003 -1.000000 0.000001
vn -0.000002 -1.000000 0.000002
vn -0.000002 -1.000000 0.000002
vn -0.000002 -1.000000 0.000002
vn -0.000002 -1.000000 0.000002
vn -0.000002 -1.000000 -0.000002
vn -0.000002 -1.000000 -0.000002
vn -0.000002 -1.000000 -0.000002
vn -0.000002 -1.000000 -0.000002
vn -0.199054 -0.521005 -0.830019
vn -0.557161 -0.615746 -0.557160
vn -0.707107 0.000000 -0.707107
vn -0.216146 -0.000000 -0.976361
vn -1.000000 -0.000000 0.000000
vn -0.803578 -0.595199 -0.000000
vn 0.003076 0.000000 0.999995
vn 0.002140 -0.569620 0.821906
vn 0.557161 -0.615746 0.557161
vn 0.707106 -0.000000 0.707108
vn -0.390507 0.000000 0.920600
vn -0.371183 -0.462057 0.805436
vn -0.000002 -1.000000 0.000002
vn -0.000002 -1.000000 0.000002
vn -0.000002 -1.000000 0.000002
vn -0.000002 -1.000000 0.000002
vn 0.000002 -1.000000 0.000002
vn 0.000002 -1.000000 0.000002
vn 0.000002 -1.000000 0.000002
vn 0.000002 -1.000000 0.000002
vn 0.000002 -1.000000 -0.000002
vn 0.000002 -1.000000 -0.000002
vn 0.000002 -1.000000 -0.000002
vn 0.000002 -1.000000 -0.000002
vn -0.000002 -1.000000 -0.000002
vn -0.000002 -1.000000 -0.000002
vn -0.000002 -1.000000 -0.000002
vn -0.000002 -1.000000 -0.000002
vn -0.000002 -1.000000 -0.000002
vn 0.199054 -0.521005 -0.830019
vn 0.216146 0.000000 -0.976361
vn 0.707107 0.000000 -0.707107
vn 0.557161 -0.615746 -0.557160
vn 1.000000 -0.000000 0.000000
vn 0.803578 -0.595199 -0.000000
vn 0.000000 0.000000 1.000000
vn 0.000000 -0.423944 0.905688
vn -0.000003 -1.000000 0.000001
vn -0.000003 -1.000000 0.000001
vn -0.000003 -1.000000 0.000001
vn -0.000003 -1.000000 0.000001
vn 0.000001 -1.000000 0.000000
vn 0.000001 -1.000000 0.000000
vn 0.000001 -1.000000 0.000000
vn 0.000001 -1.000000 0.000000
vn 0.000001 -1.000000 -0.000000
vn 0.000001 -1.000000 -0.000000
vn 0.000001 -1.000000 -0.000000
vn 0.000001 -1.000000 -0.000000
vn -0.994634 -0.000001 -0.103454
vn -0.993589 -0.039448 -0.105950
vn 0.011623 -0.348891 -0.937091
vn 0.012402 0.000000 -0.999923
vn -1.000000 -0.000001 0.000000
vn -1.000000 -0.000001 0.000000
vn 1.000000 0.000001 0.000000
vn 1.000000 -0.000000 0.000000
vn 1.000000 -0.000000 0.000000
vn 1.000000 0.000001 0.000000
vn -0.000004 -1.000000 0.000000
vn -0.000004 -1.000000 0.000000
vn -0.000004 -1.000000 0.000000
vn -0.000004 -1.000000 0.000000
vn 0.000002 -1.000000 0.000000
vn 0.000002 -1.000000 0.000000
vn 0.000002 -1.000000 0.000000
vn 0.000002 -1.000000 0.000000
vn 0.000001 -1.000000 0.000000
vn 0.000001 -1.000000 0.000000
vn 0.000001 -1.000000 0.000000
vn 0.000001 -1.000000 0.000000
vn -0.000001 -1.000000 -0.000001
vn -0.000001 -1.000000 -0.000001
vn -0.000001 -1.000000 -0.000001
vn -0.000001 -1.000000 -0.000001
vn 0.000002 -1.000000 -0.000001
vn 0.000002 -1.000000 -0.000001
vn 0.000002 -1.000000 -0.000001
vn 0.000002 -1.000000 -0.000001
vn 0.000002 -1.000000 -0.000001
vn -0.003078 -0.000001 -0.999995
vn -0.002138 -0.569619 -0.821906
vn -0.557161 -0.615746 -0.557160
vn -0.707107 0.000000 -0.707107
vn 0.390505 0.000000 -0.920601
vn 0.371182 -0.462056 -0.805437
vn 0.000003 -1.000000 -0.000001
vn 0.000003 -1.000000 -0.000001
vn 0.000003 -1.000000 -0.000001
vn 0.000003 -1.000000 -0.000001
vn -0.000002 -1.000000 -0.000002
vn -0.000002 -1.000000 -0.000002
vn -0.000002 -1.000000 -0.000002
vn -0.000002 -1.000000 -0.000002
vn -0.000002 -1.000000 0.000002
vn -0.000002 -1.000000 0.000002
vn -0.000002 -1.000000 0.000002
vn -0.000002 -1.000000 0.000002
vn -0.199054 -0.521005 0.830019
vn -0.216146 -0.000000 0.976361
vn -0.707107 0.000000 0.707107
vn -0.557161 -0.615746 0.557160
vn -1.000000 -0.000000 0.000000
vn -0.803578 -0.595199 0.000000
vn 0.003078 0.000000 -0.999995
vn 0.707107 -0.000001 -0.707107
vn 0.557161 -0.615746 -0.557161
vn 0.002138 -0.569618 -0.821907
vn -0.390505 0.000000 -0.920601
vn -0.371182 -0.462055 -0.805437
vn -0.000001 -1.000000 -0.000001
vn -0.000001 -1.000000 -0.000001
vn -0.000001 -1.000000 -0.000001
vn -0.000001 -1.000000 -0.000001
vn 0.000001 -1.000000 -0.000001
vn 0.000001 -1.000000 -0.000001
vn 0.000001 -1.000000 -0.000001
vn 0.000001 -1.000000 -0.000001
vn 0.000002 -1.000000 0.000002
vn 0.000002 -1.000000 0.000002
vn 0.000002 -1.000000 0.000002
vn 0.000002 -1.000000 0.000002
vn -0.000002 -1.000000 0.000002
vn -0.000002 -1.000000 0.000002
vn -0.000002 -1.000000 0.000002
vn -0.000002 -1.000000 0.000002
vn -0.000002 -1.000000 0.000002
vn 0.199054 -0.521005 0.830019
vn 0.557161 -0.615746 0.557160
vn 0.707107 0.000000 0.707107
vn 0.216146 0.000000 0.976361
vn 1.000000 0.000000 0.000000
vn 0.803579 -0.595199 0.000000
vn -0.000001 0.000000 -1.000000
vn -0.000002 -0.423944 -0.905689
vn -0.000005 -1.000000 0.000000
vn -0.000005 -1.000000 0.000000
vn -0.000005 -1.000000 0.000000
vn -0.000005 -1.000000 0.000000
vn 0.000001 -1.000000 0.000000
vn 0.000001 -1.000000 0.000000
vn 0.000001 -1.000000 0.000000
vn 0.000001 -1.000000 0.000000
vn 0.000001 -1.000000 0.000000
vn 0.000001 -1.000000 0.000000
vn 0.000001 -1.000000 0.000000
vn 0.000001 -1.000000 0.000000
vn -0.011623 -0.348891 0.937091
vn -0.012402 -0.000000 0.999923
vn 0.012402 0.000000 0.999923
vn 0.011623 -0.348891 0.937091
vn 0.000000 -1.000000 0.000000
vn 0.000000 -1.000000 0.000000
vn 0.000000 -1.000000 0.000000
vn 0.000000 -1.000000 0.000000
vn -0.000001 -1.000000 0.000001
vn -0.000001 -1.000000 0.000001
vn -0.000001 -1.000000 0.000001
vn -0.000001 -1.000000 0.000001
vn 0.000002 -1.000000 0.000001
vn 0.000002 -1.000000 0.000001
vn 0.000002 -1.000000 0.000001
vn 0.000002 -1.000000 0.000001
vn 0.000002 -1.000000 0.000001
vn 0.557161 0.615746 0.557161
vn 0.002140 0.569620 0.821905
vn -0.371183 0.462057 0.805436
vn -0.000003 1.000000 0.000001
vn -0.000003 1.000000 0.000001
vn -0.000003 1.000000 0.000001
vn -0.000003 1.000000 0.000001
vn 0.000002 1.000000 0.000002
vn 0.000002 1.000000 0.000002
vn 0.000002 1.000000 0.000002
vn 0.000002 1.000000 0.000002
vn 0.000002 1.000000 -0.000002
vn 0.000002 1.000000 -0.000002
vn 0.000002 1.000000 -0.000002
vn 0.000002 1.000000 -0.000002
vn 0.199054 0.521005 -0.830019
vn 0.557161 0.615746 -0.557160
vn 0.803578 0.595199 -0.000000
vn -0.002138 0.569618 0.821907
vn -0.557161 0.615746 0.557161
vn 0.371182 0.462056 0.805437
vn 0.000002 1.000000 0.000002
vn 0.000002 1.000000 0.000002
vn 0.000002 1.000000 0.000002
vn 0.000002 1.000000 0.000002
vn -0.000002 1.000000 0.000002
vn -0.000002 1.000000 0.000002
vn -0.000002 1.000000 0.000002
vn -0.000002 1.000000 0.000002
vn -0.000002 1.000000 -0.000002
vn -0.000002 1.000000 -0.000002
vn -0.000002 1.000000 -0.000002
vn -0.000002 1.000000 -0.000002
vn 0.000002 1.000000 -0.000002
vn 0.000002 1.000000 -0.000002
vn 0.000002 1.000000 -0.000002
vn 0.000002 1.000000 -0.000002
vn 0.000002 1.000000 -0.000002
vn -0.199054 0.521005 -0.830019
vn -0.557161 0.615746 -0.557160
vn -0.803578 0.595199 -0.000000
vn 0.000000 0.423944 0.905688
vn 0.000003 1.000000 0.000001
vn 0.000003 1.000000 0.000001
vn 0.000003 1.000000 0.000001
vn 0.000003 1.000000 0.000001
vn -0.000001 1.000000 0.000000
vn -0.000001 1.000000 0.000000
vn -0.000001 1.000000 0.000000
vn -0.000001 1.000000 0.000000
vn -0.000001 1.000000 -0.000000
vn -0.000001 1.000000 -0.000000
vn -0.000001 1.000000 -0.000000
vn -0.000001 1.000000 -0.000000
vn 0.011623 0.348891 -0.937091
vn -0.011623 0.348891 -0.937091
vn 1.000000 0.000001 0.000000
vn 1.000000 0.000001 0.000000
vn -1.000000 0.000000 0.000000
vn -1.000000 0.000000 0.000000
vn 0.000004 1.000000 0.000000
vn 0.000004 1.000000 0.000000
vn 0.000004 1.000000 0.000000
vn 0.000004 1.000000 0.000000
vn -0.000002 1.000000 0.000000
vn -0.000002 1.000000 0.000000
vn -0.000002 1.000000 0.000000
vn -0.000002 1.000000 0.000000
vn -0.000001 1.000000 0.000000
vn -0.000001 1.000000 0.000000
vn -0.000001 1.000000 0.000000
vn -0.000001 1.000000 0.000000
vn 0.000001 1.000000 -0.000001
vn 0.000001 1.000000 -0.000001
vn 0.000001 1.000000 -0.000001
vn 0.000001 1.000000 -0.000001
vn -0.000002 1.000000 -0.000001
vn -0.000002 1.000000 -0.000001
vn -0.000002 1.000000 -0.000001
vn -0.000002 1.000000 -0.000001
vn -0.000002 1.000000 -0.000001
vn 0.002139 0.569618 -0.821907
vn 0.557162 0.615745 -0.557161
vn -0.371182 0.462056 -0.805437
vn -0.000003 1.000000 -0.000001
vn -0.000003 1.000000 -0.000001
vn -0.000003 1.000000 -0.000001
vn -0.000003 1.000000 -0.000001
vn 0.000002 1.000000 -0.000002
vn 0.000002 1.000000 -0.000002
vn 0.000002 1.000000 -0.000002
vn 0.000002 1.000000 -0.000002
vn 0.000002 1.000000 0.000002
vn 0.000002 1.000000 0.000002
vn 0.000002 1.000000 0.000002
vn 0.000002 1.000000 0.000002
vn 0.199054 0.521005 0.830019
vn 0.557161 0.615746 0.557160
vn 0.803579 0.595199 -0.000000
vn -0.557161 0.615746 -0.557161
vn -0.002138 0.569618 -0.821907
vn 0.371182 0.462055 -0.805437
vn 0.000001 1.000000 -0.000003
vn 0.000001 1.000000 -0.000003
vn 0.000001 1.000000 -0.000003
vn 0.000001 1.000000 -0.000003
vn -0.000002 1.000000 -0.000002
vn -0.000002 1.000000 -0.000002
vn -0.000002 1.000000 -0.000002
vn -0.000002 1.000000 -0.000002
vn -0.000002 1.000000 0.000002
vn -0.000002 1.000000 0.000002
vn -0.000002 1.000000 0.000002
vn -0.000002 1.000000 0.000002
vn 0.000001 1.000000 0.000003
vn 0.000001 1.000000 0.000003
vn 0.000001 1.000000 0.000003
vn 0.000001 1.000000 0.000003
vn 0.000001 1.000000 0.000003
vn -0.199054 0.521005 0.830019
vn -0.557161 0.615746 0.557160
vn -0.803578 0.595199 0.000000
vn 0.000000 0.423944 -0.905688
vn 0.000007 1.000000 -0.000003
vn 0.000007 1.000000 -0.000003
vn 0.000007 1.000000 -0.000003
vn 0.000007 1.000000 -0.000003
vn -0.000001 1.000000 0.000000
vn -0.000001 1.000000 0.000000
vn -0.000001 1.000000 0.000000
vn -0.000001 1.000000 0.000000
vn -0.000001 1.000000 0.000000
vn -0.000001 1.000000 0.000000
vn -0.000001 1.000000 0.000000
vn -0.000001 1.000000 0.000000
vn 0.011623 0.348891 0.937091
vn -0.011623 0.348891 0.937091
vn 0.000000 1.000000 0.000000
vn 0.000000 1.000000 0.000000
vn 0.000000 1.000000 0.000000
vn 0.000000 1.000000 0.000000
vn 0.000004 1.000000 0.000002
vn 0.000004 1.000000 0.000002
vn 0.000004 1.000000 0.000002
vn 0.000004 1.000000 0.000002
vn -0.000002 1.000000 0.000001
vn -0.000002 1.000000 0.000001
vn -0.000002 1.000000 0.000001
vn -0.000002 1.000000 0.000001
vn -0.000002 1.000000 0.000001
s 1
g SM_DoggyTreat
usemtl initialShadingGroup
f 11/5/1 6/9/2 2/2/3 7/10/4
f 8/11/5 11/5/1 7/10/4 1/1/6
s off
f 1/1/7 7/10/8 12/6/9 4/15/10
f 7/10/11 2/2/12 9/12/13 12/6/14
f 12/6/15 9/12/16 3/3/17 10/14/18
s 1
f 10/14/19 3/3/20 5/16/21 13/7/22
f 14/8/23 5/17/21 3/4/20 9/13/24
f 6/9/2 14/8/23 9/13/24 2/2/3
f 25/18/25 21/22/26 16/21/27 20/20/28
f 22/19/29 15/23/30 21/22/26 25/18/25
s off
f 15/23/31 18/25/32 26/24/33 21/22/34
f 21/22/35 26/24/36 23/26/37 16/21/38
f 26/24/39 24/28/40 17/27/41 23/26/42
f 35/43/43 37/42/44 24/28/45 26/24/46 18/25/47
s 1
f 24/28/48 27/29/49 19/30/50 17/27/51
f 28/31/52 23/34/53 17/33/51 19/32/50
f 20/20/28 16/21/27 23/34/53 28/31/52
f 29/35/54 30/36/55 15/23/30 22/19/29
s off
f 30/36/56 31/37/57 18/25/58 15/23/59
s 1
f 8/11/5 1/1/6 30/36/55 29/35/54
s off
f 1/1/60 4/15/61 31/37/62 30/36/63
f 32/38/64 38/44/65 31/37/66 4/15/67
s 1
f 10/14/19 13/7/22 34/40/68 33/39/69
f 27/29/49 24/28/48 37/42/70 36/41/71
f 33/47/69 34/48/68 72/104/72 71/103/73
s 5
f 36/49/74 37/50/75 75/106/76 74/105/77
s off
f 37/51/78 35/52/79 73/108/80 75/107/81
f 35/53/82 38/54/83 76/110/84 73/109/85
f 38/55/86 32/56/87 70/112/88 76/111/89
f 35/43/90 18/25/91 31/37/92 38/44/93
f 32/38/94 4/15/95 12/6/96 10/14/97 33/39/98
s 6
f 49/57/99 45/60/100 40/59/101 44/58/102
f 46/61/103 39/62/104 45/60/100 49/57/99
s off
f 39/62/105 42/64/106 50/63/107 45/60/108
f 45/60/109 50/63/110 47/65/111 40/59/112
f 50/63/113 48/67/114 41/66/115 47/65/116
s 6
f 48/67/117 51/69/118 43/68/119 41/66/120
f 52/70/121 47/73/122 41/72/120 43/71/119
f 44/58/102 40/59/101 47/73/122 52/70/121
f 63/74/123 58/77/124 54/76/125 59/75/126
f 60/78/127 63/74/123 59/75/126 53/79/128
s off
f 53/79/129 59/75/130 64/81/131 56/80/132
f 59/75/133 54/76/134 61/82/135 64/81/136
f 64/81/137 61/82/138 55/84/139 62/83/140
f 73/85/141 56/80/142 64/81/143 62/83/144 75/86/145
s 6
f 62/83/146 55/84/147 57/88/148 65/87/149
f 66/89/150 57/92/148 55/91/147 61/90/151
f 58/77/124 66/89/150 61/90/151 54/76/125
f 67/93/152 60/78/127 53/79/128 68/94/153
s off
f 68/94/154 53/79/155 56/80/156 69/95/157
s 6
f 46/61/103 67/93/152 68/94/153 39/62/104
s off
f 39/62/158 68/94/159 69/95/160 42/64/161
f 70/96/162 42/64/163 69/95/164 76/97/165
s 6
f 48/67/117 71/99/166 72/98/167 51/69/118
f 65/87/149 74/100/168 75/86/169 62/83/146
s off
f 33/46/170 71/102/171 70/101/172 32/45/173
f 73/85/174 76/97/175 69/95/176 56/80/177
f 70/96/178 71/99/179 48/67/180 50/63/181 42/64/182
s 1
f 25/113/25 20/114/28 78/115/183 81/116/184
f 22/117/29 25/113/25 81/116/184 77/118/185
s off
f 77/118/186 81/116/187 84/119/188 80/120/189
f 81/116/190 78/115/191 82/121/192 84/119/193
f 84/119/194 82/121/195 79/122/196 83/123/197
s 1
f 83/123/198 79/122/199 19/124/50 27/125/49
f 28/126/52 19/127/50 79/128/199 82/129/200
f 20/114/28 28/126/52 82/129/200 78/115/183
f 11/130/1 89/131/201 86/132/202 6/133/2
f 8/134/5 85/135/203 89/131/201 11/130/1
s off
f 85/135/204 88/136/205 92/137/206 89/131/207
f 89/131/208 92/137/209 90/138/210 86/132/211
f 92/137/212 91/139/213 87/140/214 90/138/215
f 97/141/216 98/142/217 91/139/218 92/137/219 88/136/220
s 1
f 91/139/221 13/143/22 5/144/21 87/140/222
f 14/145/23 90/146/223 87/147/222 5/148/21
f 6/133/2 86/132/202 90/146/223 14/145/23
f 29/149/54 93/150/224 85/135/203 8/134/5
s off
f 93/150/225 94/151/226 88/136/227 85/135/228
s 1
f 22/117/29 77/118/185 93/150/224 29/149/54
s off
f 77/118/229 80/120/230 94/151/231 93/150/232
f 95/152/233 99/153/234 94/151/235 80/120/236
s 1
f 83/123/198 27/125/49 36/154/71 96/155/237
f 13/143/22 91/139/221 98/142/238 34/156/68
s 5
f 96/159/239 36/160/74 74/216/77 119/215/240
s 1
f 72/217/72 34/161/68 98/162/241 121/218/242
s off
f 98/163/243 97/164/244 120/220/245 121/219/246
f 97/165/247 99/166/248 122/222/249 120/221/250
f 99/167/251 95/168/252 118/224/253 122/223/254
f 97/141/255 88/136/256 94/151/257 99/153/258
f 95/152/259 80/120/260 84/119/261 83/123/262 96/155/263
s 6
f 63/169/123 104/170/264 101/171/265 58/172/124
f 60/173/127 100/174/266 104/170/264 63/169/123
s off
f 100/174/267 103/175/268 107/176/269 104/170/270
f 104/170/271 107/176/272 105/177/273 101/171/274
f 107/176/275 106/178/276 102/179/277 105/177/278
s 6
f 106/178/279 65/180/149 57/181/148 102/179/280
f 66/182/150 105/183/281 102/184/280 57/185/148
f 58/172/124 101/171/265 105/183/281 66/182/150
f 49/186/99 44/187/102 109/188/282 112/189/283
f 46/190/103 49/186/99 112/189/283 108/191/284
s off
f 108/191/285 112/189/286 115/192/287 111/193/288
f 112/189/289 109/188/290 113/194/291 115/192/292
f 115/192/293 113/194/294 110/195/295 114/196/296
f 120/197/297 111/193/298 115/192/299 114/196/300 121/198/301
s 6
f 114/196/302 110/195/303 43/199/119 51/200/118
f 52/201/121 43/202/119 110/203/303 113/204/304
f 44/187/102 52/201/121 113/204/304 109/188/282
f 67/205/152 46/190/103 108/191/284 116/206/305
s off
f 116/206/306 108/191/307 111/193/308 117/207/309
s 6
f 60/173/127 67/205/152 116/206/305 100/174/266
s off
f 100/174/310 116/206/311 117/207/312 103/175/313
f 118/208/314 103/175/315 117/207/316 122/209/317
s 6
f 106/178/279 119/210/318 74/211/168 65/180/149
f 51/200/118 72/212/167 121/198/319 114/196/302
s off
f 96/158/320 119/214/321 118/213/322 95/157/323
f 120/197/324 122/209/325 117/207/326 111/193/327
f 118/208/328 119/210/329 106/178/330 107/176/331 103/175/332
