# This file uses centimeters as units for non-parametric coordinates.

mtllib SM_FoodBowl.mtl
g default
v 0.000000 -0.000000 0.000000
v -0.355706 0.192443 0.000000
v -0.287772 0.192443 -0.209079
v -0.109919 0.192443 -0.338296
v 0.109919 0.192443 -0.338296
v 0.287772 0.192443 -0.209079
v 0.355705 0.192443 0.000000
v 0.287772 0.192443 0.209079
v 0.109919 0.192443 0.338296
v -0.109919 0.192443 0.338296
v -0.287772 0.192443 0.209079
v -0.369218 0.196524 0.000000
v -0.298703 0.196524 -0.217021
v -0.369218 0.222813 0.000000
v -0.298703 0.222813 -0.217021
v -0.114095 0.196524 -0.351147
v -0.114095 0.222813 -0.351147
v 0.114095 0.196524 -0.351147
v 0.114095 0.222813 -0.351147
v 0.298703 0.196524 -0.217021
v 0.298703 0.222813 -0.217021
v 0.369218 0.196524 0.000000
v 0.369218 0.222813 0.000000
v 0.298703 0.196524 0.217021
v 0.298703 0.222813 0.217021
v 0.114095 0.196524 0.351147
v 0.114095 0.222813 0.351147
v -0.114095 0.196524 0.351147
v -0.114095 0.222813 0.351147
v -0.298703 0.196524 0.217021
v -0.298703 0.222813 0.217021
v -0.303530 0.209668 0.220528
v -0.375184 0.209668 0.000000
v -0.303530 0.209668 -0.220528
v -0.115938 0.209668 -0.356821
v 0.115938 0.209668 -0.356821
v 0.303530 0.209668 -0.220528
v 0.375184 0.209668 0.000000
v 0.303530 0.209668 0.220528
v 0.115938 0.209668 0.356821
v -0.115938 0.209668 0.356821
v -0.360740 0.132653 0.000000
v -0.291845 0.132653 -0.212038
v -0.111475 0.132653 -0.343084
v 0.111475 0.132653 -0.343085
v 0.291845 0.132653 -0.212038
v 0.360740 0.132653 0.000000
v 0.291845 0.132653 0.212038
v 0.111475 0.132653 0.343084
v -0.111475 0.132653 0.343084
v -0.291845 0.132653 0.212038
v 0.273616 0.222813 -0.198794
v 0.104512 0.222813 -0.321655
v -0.104512 0.222813 -0.321655
v -0.273616 0.222813 -0.198794
v -0.338208 0.222813 0.000000
v -0.273616 0.222813 0.198794
v -0.104512 0.222813 0.321655
v 0.104512 0.222813 0.321655
v 0.273616 0.222813 0.198794
v 0.338208 0.222813 -0.000000
v 0.256289 0.003846 -0.186205
v 0.097894 0.003846 -0.301286
v 0.000000 0.003846 -0.000000
v -0.097894 0.003846 -0.301286
v -0.256289 0.003846 -0.186205
v -0.316791 0.003846 0.000000
v -0.256289 0.003846 0.186205
v -0.097894 0.003846 0.301286
v 0.097894 0.003846 0.301286
v 0.256289 0.003846 0.186205
v 0.316791 0.003846 -0.000000
v 0.101203 0.136262 0.311470
v -0.101203 0.136262 0.311470
v -0.264952 0.136262 0.192499
v -0.327499 0.136262 0.000000
v -0.264953 0.136262 -0.192499
v -0.101203 0.136262 -0.311470
v 0.101203 0.136262 -0.311470
v 0.264952 0.136262 -0.192499
v 0.327499 0.136262 -0.000000
v 0.264952 0.136262 0.192499
v 0.276938 0.041343 -0.201208
v 0.259997 0.000000 -0.188899
v 0.105781 0.041343 -0.325561
v 0.099310 0.000000 -0.305645
v -0.105781 0.041343 -0.325561
v -0.099310 0.000000 -0.305645
v -0.276938 0.041343 -0.201208
v -0.259997 0.000000 -0.188899
v -0.342315 0.041343 0.000000
v -0.321374 0.000000 0.000000
v -0.276938 0.041343 0.201208
v -0.259997 0.000000 0.188899
v -0.105781 0.041343 0.325561
v -0.099310 -0.000000 0.305645
v 0.105781 0.041343 0.325561
v 0.099310 -0.000000 0.305645
v 0.276938 0.041343 0.201208
v 0.259997 0.000000 0.188899
v 0.342315 0.041343 -0.000000
v 0.321374 0.000000 -0.000000
vt 0.500000 0.843750
vt 0.475000 0.500000
vt 0.450000 0.500000
vt 0.425000 0.500000
vt 0.400000 0.500000
vt 0.625000 0.500000
vt 0.375000 0.500000
vt 0.600000 0.500000
vt 0.575000 0.500000
vt 0.550000 0.500000
vt 0.525000 0.500000
vt 0.500000 0.500000
vt 0.450000 0.500000
vt 0.475000 0.500000
vt 0.475000 0.687500
vt 0.450000 0.687500
vt 0.425000 0.500000
vt 0.425000 0.687500
vt 0.400000 0.500000
vt 0.400000 0.687500
vt 0.375000 0.500000
vt 0.375000 0.687500
vt 0.600000 0.500000
vt 0.625000 0.500000
vt 0.625000 0.687500
vt 0.600000 0.687500
vt 0.575000 0.500000
vt 0.575000 0.687500
vt 0.550000 0.500000
vt 0.550000 0.687500
vt 0.525000 0.500000
vt 0.525000 0.687500
vt 0.500000 0.500000
vt 0.500000 0.687500
vt 0.500000 0.593750
vt 0.475000 0.593750
vt 0.450000 0.593750
vt 0.425000 0.593750
vt 0.400000 0.593750
vt 0.625000 0.593750
vt 0.375000 0.593750
vt 0.600000 0.593750
vt 0.575000 0.593750
vt 0.550000 0.593750
vt 0.525000 0.593750
vt 0.625000 0.406250
vt 0.626409 0.935591
vt 0.548284 0.992353
vt 0.451716 0.992353
vt 0.373591 0.935591
vt 0.343750 0.843750
vt 0.373591 0.751909
vt 0.451716 0.695147
vt 0.548284 0.695147
vt 0.626409 0.751909
vt 0.656250 0.843750
vt 0.626409 0.935591
vt 0.548284 0.992353
vt 0.451716 0.992353
vt 0.373591 0.935591
vt 0.343750 0.843750
vt 0.373591 0.751909
vt 0.451716 0.695147
vt 0.548284 0.695147
vt 0.626409 0.751909
vt 0.656250 0.843750
vt 0.548284 0.695147
vt 0.451716 0.695147
vt 0.373591 0.751909
vt 0.343750 0.843750
vt 0.373591 0.935591
vt 0.451716 0.992353
vt 0.548284 0.992353
vt 0.626409 0.935591
vt 0.656250 0.843750
vt 0.626409 0.751909
vt 0.375000 0.340622
vt 0.376197 0.312500
vt 0.398620 0.312500
vt 0.623620 0.312500
vt 0.601197 0.312500
vt 0.401197 0.312500
vt 0.423620 0.312500
vt 0.426197 0.312500
vt 0.448620 0.312500
vt 0.451197 0.312500
vt 0.473620 0.312500
vt 0.476197 0.312500
vt 0.498620 0.312500
vt 0.501197 0.312500
vt 0.523620 0.312500
vt 0.526197 0.312500
vt 0.548620 0.312500
vt 0.551197 0.312500
vt 0.573620 0.312500
vt 0.576197 0.312500
vt 0.598620 0.312500
vt 0.400000 0.340622
vt 0.375000 0.406250
vt 0.425000 0.340622
vt 0.400000 0.406250
vt 0.450000 0.340622
vt 0.425000 0.406250
vt 0.475000 0.340622
vt 0.450000 0.406250
vt 0.500000 0.340622
vt 0.475000 0.406250
vt 0.525000 0.340622
vt 0.500000 0.406250
vt 0.550000 0.340622
vt 0.525000 0.406250
vt 0.575000 0.340622
vt 0.550000 0.406250
vt 0.600000 0.340622
vt 0.575000 0.406250
vt 0.625000 0.340622
vt 0.600000 0.406250
vt 0.614159 0.073309
vt 0.543605 0.022048
vt 0.456395 0.022048
vt 0.385841 0.073309
vt 0.358892 0.156250
vt 0.385841 0.239191
vt 0.456395 0.290452
vt 0.543605 0.290452
vt 0.614159 0.239191
vt 0.500000 0.156250
vt 0.641108 0.156250
vn 0.000000 1.000000 0.000000
vn 0.000000 1.000000 0.000000
vn 0.000000 1.000000 0.000000
vn 0.000000 1.000000 -0.000000
vn 0.000000 1.000000 -0.000000
vn 0.000000 1.000000 -0.000000
vn 0.000000 1.000000 0.000000
vn 0.000000 1.000000 0.000000
vn 0.000000 1.000000 0.000000
vn 0.000000 1.000000 0.000000
vn 0.000000 1.000000 0.000000
vn 0.000000 1.000000 0.000000
vn 0.000000 1.000000 0.000000
vn 0.000000 1.000000 0.000000
vn 0.000000 1.000000 0.000000
vn 0.000000 1.000000 0.000000
vn 0.000000 1.000000 0.000000
vn 0.000000 1.000000 0.000000
vn 0.000000 1.000000 0.000000
vn 0.000000 1.000000 0.000000
vn 0.000000 1.000000 0.000000
vn 0.000000 1.000000 0.000000
vn 0.000000 1.000000 0.000000
vn 0.000000 1.000000 0.000000
vn 0.000000 1.000000 -0.000000
vn 0.000000 1.000000 -0.000000
vn 0.000000 1.000000 -0.000000
vn 0.000000 1.000000 0.000000
vn 0.000000 1.000000 0.000000
vn 0.000000 1.000000 0.000000
vn -0.873175 -0.396324 -0.283712
vn -0.873175 -0.396324 -0.283712
vn -0.873175 -0.396324 -0.283712
vn -0.873175 -0.396324 -0.283712
vn -0.539651 -0.396325 -0.742767
vn -0.539651 -0.396325 -0.742767
vn -0.539651 -0.396325 -0.742767
vn -0.539651 -0.396325 -0.742767
vn -0.000000 -0.396326 -0.918110
vn -0.000000 -0.396326 -0.918110
vn -0.000000 -0.396326 -0.918110
vn -0.000000 -0.396326 -0.918110
vn 0.539651 -0.396327 -0.742766
vn 0.539651 -0.396327 -0.742766
vn 0.539651 -0.396327 -0.742766
vn 0.539651 -0.396327 -0.742766
vn 0.873175 -0.396324 -0.283712
vn 0.873175 -0.396324 -0.283712
vn 0.873175 -0.396324 -0.283712
vn 0.873175 -0.396324 -0.283712
vn 0.873174 -0.396326 0.283711
vn 0.873174 -0.396326 0.283711
vn 0.873174 -0.396326 0.283711
vn 0.873174 -0.396326 0.283711
vn 0.539651 -0.396326 0.742767
vn 0.539651 -0.396326 0.742767
vn 0.539651 -0.396326 0.742767
vn 0.539651 -0.396326 0.742767
vn 0.000000 -0.396326 0.918110
vn 0.000000 -0.396326 0.918110
vn 0.000000 -0.396326 0.918110
vn 0.000000 -0.396326 0.918110
vn -0.539651 -0.396326 0.742767
vn -0.539651 -0.396326 0.742767
vn -0.539651 -0.396326 0.742767
vn -0.539651 -0.396326 0.742767
vn -0.873175 -0.396325 0.283712
vn -0.873175 -0.396325 0.283712
vn -0.873175 -0.396325 0.283712
vn -0.873175 -0.396324 0.283712
vn -0.287869 -0.953091 -0.093534
vn -0.287869 -0.953091 -0.093534
vn -0.287869 -0.953091 -0.093534
vn -0.287869 -0.953091 -0.093534
vn -0.177912 -0.953091 -0.244877
vn -0.177912 -0.953091 -0.244877
vn -0.177912 -0.953091 -0.244877
vn -0.177912 -0.953091 -0.244877
vn -0.000000 -0.953092 -0.302683
vn -0.000000 -0.953092 -0.302683
vn -0.000000 -0.953092 -0.302683
vn -0.000000 -0.953092 -0.302683
vn 0.177913 -0.953091 -0.244875
vn 0.177913 -0.953092 -0.244875
vn 0.177912 -0.953092 -0.244875
vn 0.177913 -0.953092 -0.244875
vn 0.287868 -0.953091 -0.093534
vn 0.287868 -0.953092 -0.093534
vn 0.287868 -0.953091 -0.093534
vn 0.287868 -0.953091 -0.093534
vn 0.287868 -0.953091 0.093534
vn 0.287868 -0.953091 0.093534
vn 0.287868 -0.953091 0.093534
vn 0.287868 -0.953091 0.093534
vn 0.177912 -0.953092 0.244875
vn 0.177912 -0.953092 0.244875
vn 0.177912 -0.953092 0.244875
vn 0.177912 -0.953092 0.244875
vn 0.000000 -0.953091 0.302683
vn 0.000000 -0.953091 0.302683
vn 0.000000 -0.953091 0.302683
vn 0.000000 -0.953091 0.302683
vn -0.177912 -0.953092 0.244875
vn -0.177912 -0.953092 0.244875
vn -0.177912 -0.953092 0.244875
vn -0.177912 -0.953092 0.244875
vn -0.287869 -0.953091 0.093534
vn -0.287869 -0.953091 0.093534
vn -0.287869 -0.953091 0.093534
vn -0.287869 -0.953091 0.093534
vn -0.873175 0.396324 0.283712
vn -0.873175 0.396324 0.283712
vn -0.873175 0.396324 0.283712
vn -0.873175 0.396324 0.283712
vn -0.873175 0.396324 -0.283712
vn -0.873175 0.396324 -0.283712
vn -0.873175 0.396324 -0.283712
vn -0.873175 0.396324 -0.283712
vn -0.539652 0.396325 -0.742767
vn -0.539652 0.396325 -0.742766
vn -0.539652 0.396325 -0.742766
vn -0.539652 0.396325 -0.742766
vn -0.000000 0.396326 -0.918110
vn -0.000000 0.396326 -0.918110
vn -0.000000 0.396326 -0.918110
vn -0.000000 0.396326 -0.918110
vn 0.539651 0.396326 -0.742767
vn 0.539651 0.396326 -0.742767
vn 0.539651 0.396326 -0.742767
vn 0.539651 0.396326 -0.742767
vn 0.873175 0.396324 -0.283711
vn 0.873175 0.396324 -0.283711
vn 0.873176 0.396324 -0.283711
vn 0.873175 0.396324 -0.283711
vn 0.873175 0.396326 0.283711
vn 0.873175 0.396326 0.283711
vn 0.873175 0.396326 0.283711
vn 0.873175 0.396326 0.283711
vn 0.539652 0.396326 0.742766
vn 0.539652 0.396326 0.742766
vn 0.539652 0.396326 0.742766
vn 0.539652 0.396326 0.742766
vn 0.000000 0.396326 0.918110
vn 0.000000 0.396326 0.918110
vn 0.000000 0.396326 0.918110
vn 0.000000 0.396326 0.918110
vn -0.539651 0.396326 0.742767
vn -0.539651 0.396326 0.742767
vn -0.539651 0.396326 0.742767
vn -0.539651 0.396326 0.742767
vn -0.948021 0.079831 -0.308031
vn -0.948021 0.079831 -0.308031
vn -0.948021 0.079831 -0.308031
vn -0.948021 0.079831 -0.308031
vn -0.585910 0.079831 -0.806435
vn -0.585910 0.079831 -0.806435
vn -0.585909 0.079831 -0.806435
vn -0.585909 0.079831 -0.806435
vn -0.000000 0.079832 -0.996808
vn -0.000000 0.079832 -0.996808
vn -0.000000 0.079832 -0.996808
vn -0.000000 0.079832 -0.996808
vn 0.585909 0.079832 -0.806435
vn 0.585909 0.079832 -0.806435
vn 0.585909 0.079832 -0.806435
vn 0.585909 0.079832 -0.806435
vn 0.948021 0.079832 -0.308031
vn 0.948021 0.079832 -0.308031
vn 0.948021 0.079832 -0.308031
vn 0.948021 0.079832 -0.308031
vn 0.948021 0.079832 0.308031
vn 0.948021 0.079832 0.308031
vn 0.948021 0.079832 0.308031
vn 0.948021 0.079832 0.308031
vn 0.585909 0.079831 0.806435
vn 0.585909 0.079831 0.806435
vn 0.585909 0.079831 0.806435
vn 0.585909 0.079831 0.806435
vn 0.000000 0.079831 0.996808
vn 0.000000 0.079831 0.996808
vn 0.000000 0.079831 0.996808
vn 0.000000 0.079831 0.996808
vn -0.585909 0.079832 0.806435
vn -0.585909 0.079832 0.806435
vn -0.585909 0.079832 0.806435
vn -0.585909 0.079832 0.806435
vn -0.948021 0.079831 0.308031
vn -0.948021 0.079831 0.308031
vn -0.948021 0.079831 0.308031
vn -0.948021 0.079831 0.308031
vn 0.000000 1.000000 0.000001
vn 0.000000 1.000000 0.000001
vn 0.000000 1.000000 0.000001
vn 0.000000 1.000000 0.000001
vn 0.000000 1.000000 -0.000001
vn 0.000000 1.000000 -0.000001
vn 0.000000 1.000000 -0.000001
vn 0.000000 1.000000 -0.000001
vn 0.000000 1.000000 0.000001
vn 0.000000 1.000000 0.000001
vn 0.000000 1.000000 0.000001
vn 0.000000 1.000000 0.000001
vn 0.000000 1.000000 -0.000000
vn 0.000000 1.000000 -0.000000
vn 0.000000 1.000000 -0.000000
vn 0.000000 1.000000 -0.000000
vn 0.000000 1.000000 0.000000
vn 0.000000 1.000000 0.000000
vn 0.000000 1.000000 0.000000
vn 0.000000 1.000000 0.000000
vn 0.000000 1.000000 -0.000001
vn 0.000000 1.000000 -0.000001
vn 0.000000 1.000000 -0.000001
vn 0.000000 1.000000 -0.000001
vn 0.000000 1.000000 -0.000001
vn 0.000000 1.000000 -0.000001
vn 0.000000 1.000000 -0.000001
vn 0.000000 1.000000 -0.000001
vn 0.000000 1.000000 0.000000
vn 0.000000 1.000000 0.000000
vn 0.000000 1.000000 0.000000
vn 0.000000 1.000000 0.000000
vn 0.000000 1.000000 0.000000
vn 0.000000 1.000000 0.000000
vn 0.000000 1.000000 0.000000
vn 0.000000 1.000000 0.000000
vn 0.000000 1.000000 -0.000000
vn 0.000000 1.000000 -0.000000
vn 0.000000 1.000000 -0.000000
vn 0.000000 1.000000 -0.000000
vn -0.583758 0.116863 0.803474
vn -0.583758 0.116863 0.803474
vn -0.583758 0.116863 0.803474
vn -0.583758 0.116863 0.803474
vn 0.000000 0.116864 0.993148
vn 0.000000 0.116864 0.993148
vn 0.000000 0.116864 0.993148
vn 0.000000 0.116864 0.993148
vn 0.583758 0.116863 0.803474
vn 0.583758 0.116863 0.803474
vn 0.583758 0.116863 0.803474
vn 0.583758 0.116863 0.803474
vn 0.944540 0.116864 0.306900
vn 0.944540 0.116864 0.306900
vn 0.944540 0.116864 0.306900
vn 0.944540 0.116864 0.306900
vn 0.944540 0.116863 -0.306900
vn 0.944540 0.116863 -0.306900
vn 0.944540 0.116863 -0.306900
vn 0.944540 0.116863 -0.306900
vn 0.583758 0.116863 -0.803474
vn 0.583758 0.116863 -0.803474
vn 0.583758 0.116863 -0.803474
vn 0.583758 0.116863 -0.803474
vn 0.000000 0.116863 -0.993148
vn 0.000000 0.116863 -0.993148
vn 0.000000 0.116863 -0.993148
vn 0.000000 0.116863 -0.993148
vn -0.583758 0.116863 -0.803474
vn -0.583758 0.116863 -0.803474
vn -0.583758 0.116863 -0.803474
vn -0.583758 0.116863 -0.803474
vn -0.944540 0.116864 -0.306900
vn -0.944540 0.116864 -0.306900
vn -0.944540 0.116864 -0.306900
vn -0.944540 0.116864 -0.306900
vn -0.944540 0.116863 0.306900
vn -0.944540 0.116863 0.306900
vn -0.944540 0.116863 0.306900
vn -0.944540 0.116863 0.306899
vn 0.000000 0.076687 -0.997055
vn 0.000000 0.076687 -0.997055
vn 0.000000 0.076687 -0.997055
vn 0.000000 0.076687 -0.997055
vn 0.586054 0.076687 -0.806635
vn 0.586054 0.076687 -0.806635
vn 0.586054 0.076687 -0.806635
vn 0.586054 0.076687 -0.806635
vn 0.948256 0.076686 -0.308107
vn 0.948256 0.076686 -0.308107
vn 0.948256 0.076686 -0.308107
vn 0.948256 0.076686 -0.308107
vn 0.948256 0.076687 0.308107
vn 0.948256 0.076687 0.308107
vn 0.948256 0.076687 0.308107
vn 0.948256 0.076687 0.308107
vn 0.586055 0.076687 0.806635
vn 0.586055 0.076687 0.806635
vn 0.586054 0.076687 0.806635
vn 0.586054 0.076687 0.806635
vn 0.000000 0.076687 0.997055
vn 0.000000 0.076687 0.997055
vn 0.000000 0.076687 0.997055
vn 0.000000 0.076687 0.997055
vn -0.586054 0.076687 0.806635
vn -0.586054 0.076687 0.806635
vn -0.586054 0.076687 0.806635
vn -0.586054 0.076687 0.806635
vn -0.948256 0.076687 0.308107
vn -0.948256 0.076687 0.308107
vn -0.948256 0.076687 0.308107
vn -0.948256 0.076687 0.308107
vn -0.948256 0.076687 -0.308107
vn -0.948256 0.076687 -0.308107
vn -0.948256 0.076687 -0.308107
vn -0.948256 0.076687 -0.308107
vn -0.586055 0.076687 -0.806635
vn -0.586055 0.076687 -0.806635
vn -0.586055 0.076687 -0.806635
vn -0.586055 0.076687 -0.806635
vn 0.529546 -0.433990 -0.728858
vn 0.529546 -0.433990 -0.728858
vn 0.529546 -0.433990 -0.728858
vn 0.529546 -0.433990 -0.728858
vn 0.856824 -0.433989 -0.278399
vn 0.856824 -0.433989 -0.278399
vn 0.856824 -0.433989 -0.278399
vn 0.856824 -0.433989 -0.278399
vn -0.000000 -0.433990 -0.900918
vn -0.000000 -0.433990 -0.900918
vn -0.000000 -0.433990 -0.900918
vn -0.000000 -0.433990 -0.900918
vn -0.529546 -0.433990 -0.728858
vn -0.529546 -0.433990 -0.728858
vn -0.529546 -0.433990 -0.728858
vn -0.529546 -0.433990 -0.728858
vn -0.856824 -0.433989 -0.278399
vn -0.856824 -0.433989 -0.278399
vn -0.856824 -0.433989 -0.278399
vn -0.856824 -0.433989 -0.278399
vn -0.856824 -0.433990 0.278399
vn -0.856824 -0.433990 0.278399
vn -0.856824 -0.433990 0.278399
vn -0.856824 -0.433990 0.278399
vn -0.529546 -0.433989 0.728858
vn -0.529546 -0.433990 0.728858
vn -0.529546 -0.433990 0.728858
vn -0.529546 -0.433989 0.728858
vn 0.000000 -0.433990 0.900918
vn 0.000000 -0.433990 0.900918
vn 0.000000 -0.433990 0.900918
vn 0.000000 -0.433990 0.900918
vn 0.529546 -0.433990 0.728858
vn 0.529546 -0.433990 0.728858
vn 0.529546 -0.433990 0.728858
vn 0.529546 -0.433989 0.728858
vn 0.856824 -0.433990 0.278399
vn 0.856824 -0.433990 0.278399
vn 0.856824 -0.433990 0.278399
vn 0.856824 -0.433990 0.278399
vn 0.577251 -0.188476 -0.794518
vn 0.577251 -0.188476 -0.794518
vn 0.577251 -0.188476 -0.794518
vn 0.577251 -0.188476 -0.794518
vn -0.000000 -0.188475 -0.982078
vn -0.000000 -0.188475 -0.982078
vn -0.000000 -0.188475 -0.982078
vn -0.000000 -0.188475 -0.982078
vn -0.577251 -0.188475 -0.794518
vn -0.577251 -0.188475 -0.794518
vn -0.577251 -0.188475 -0.794518
vn -0.577251 -0.188475 -0.794518
vn -0.934012 -0.188476 -0.303479
vn -0.934012 -0.188476 -0.303479
vn -0.934012 -0.188476 -0.303479
vn -0.934012 -0.188476 -0.303479
vn -0.934012 -0.188475 0.303479
vn -0.934012 -0.188476 0.303479
vn -0.934012 -0.188475 0.303479
vn -0.934012 -0.188475 0.303479
vn -0.577251 -0.188476 0.794518
vn -0.577251 -0.188475 0.794518
vn -0.577251 -0.188476 0.794518
vn -0.577251 -0.188476 0.794518
vn 0.000000 -0.188475 0.982078
vn 0.000000 -0.188475 0.982078
vn 0.000000 -0.188475 0.982078
vn 0.000000 -0.188475 0.982078
vn 0.577251 -0.188475 0.794518
vn 0.577251 -0.188475 0.794518
vn 0.577251 -0.188475 0.794518
vn 0.577251 -0.188475 0.794518
vn 0.934012 -0.188476 0.303479
vn 0.934012 -0.188476 0.303479
vn 0.934012 -0.188476 0.303479
vn 0.934012 -0.188476 0.303479
vn 0.934012 -0.188476 -0.303479
vn 0.934012 -0.188476 -0.303479
vn 0.934012 -0.188476 -0.303479
vn 0.934012 -0.188476 -0.303479
vn 0.000000 -1.000000 -0.000000
vn 0.000000 -1.000000 -0.000000
vn 0.000000 -1.000000 -0.000000
vn -0.000000 -1.000000 -0.000000
vn -0.000000 -1.000000 -0.000000
vn -0.000000 -1.000000 -0.000000
vn -0.000000 -1.000000 -0.000000
vn -0.000000 -1.000000 -0.000000
vn -0.000000 -1.000000 -0.000000
vn -0.000000 -1.000000 -0.000000
vn -0.000000 -1.000000 -0.000000
vn -0.000000 -1.000000 -0.000000
vn -0.000000 -1.000000 0.000000
vn -0.000000 -1.000000 0.000000
vn -0.000000 -1.000000 0.000000
vn -0.000000 -1.000000 -0.000000
vn -0.000000 -1.000000 -0.000000
vn -0.000000 -1.000000 -0.000000
vn 0.000000 -1.000000 0.000000
vn 0.000000 -1.000000 0.000000
vn 0.000000 -1.000000 0.000000
vn 0.000000 -1.000000 -0.000000
vn 0.000000 -1.000000 -0.000000
vn 0.000000 -1.000000 -0.000000
vn 0.000000 -1.000000 0.000000
vn 0.000000 -1.000000 0.000000
vn 0.000000 -1.000000 0.000000
vn 0.000000 -1.000000 -0.000000
vn 0.000000 -1.000000 -0.000000
vn 0.000000 -1.000000 -0.000000
s off
g SM_FoodBowl
usemtl SM_FoodBowlSG
f 62/57/1 63/58/2 64/1/3
f 63/58/4 65/59/5 64/1/6
f 65/59/7 66/60/8 64/1/9
f 66/60/10 67/61/11 64/1/12
f 67/61/13 68/62/14 64/1/15
f 68/62/16 69/63/17 64/1/18
f 69/63/19 70/64/20 64/1/21
f 70/64/22 71/65/23 64/1/24
f 71/65/25 72/66/26 64/1/27
f 72/66/28 62/57/29 64/1/30
f 13/13/31 12/14/32 33/36/33 34/37/34
f 16/17/35 13/13/36 34/37/37 35/38/38
f 18/19/39 16/17/40 35/38/41 36/39/42
f 20/21/43 18/19/44 36/39/45 37/41/46
f 22/23/47 20/24/48 37/40/49 38/42/50
f 24/27/51 22/23/52 38/42/53 39/43/54
f 26/29/55 24/27/56 39/43/57 40/44/58
f 28/31/59 26/29/60 40/44/61 41/45/62
f 30/33/63 28/31/64 41/45/65 32/35/66
f 12/14/67 30/33/68 32/35/69 33/36/70
f 3/3/71 2/2/72 12/14/73 13/13/74
f 4/4/75 3/3/76 13/13/77 16/17/78
f 5/5/79 4/4/80 16/17/81 18/19/82
f 6/7/83 5/5/84 18/19/85 20/21/86
f 7/8/87 6/6/88 20/24/89 22/23/90
f 8/9/91 7/8/92 22/23/93 24/27/94
f 9/10/95 8/9/96 24/27/97 26/29/98
f 10/11/99 9/10/100 26/29/101 28/31/102
f 11/12/103 10/11/104 28/31/105 30/33/106
f 2/2/107 11/12/108 30/33/109 12/14/110
f 33/36/111 32/35/112 31/34/113 14/15/114
f 34/37/115 33/36/116 14/15/117 15/16/118
f 35/38/119 34/37/120 15/16/121 17/18/122
f 36/39/123 35/38/124 17/18/125 19/20/126
f 37/41/127 36/39/128 19/20/129 21/22/130
f 38/42/131 37/40/132 21/25/133 23/26/134
f 39/43/135 38/42/136 23/26/137 25/28/138
f 40/44/139 39/43/140 25/28/141 27/30/142
f 41/45/143 40/44/144 27/30/145 29/32/146
f 32/35/147 41/45/148 29/32/149 31/34/150
f 43/105/151 42/107/152 2/2/153 3/3/154
f 44/103/155 43/105/156 3/3/157 4/4/158
f 45/101/159 44/103/160 4/4/161 5/5/162
f 46/99/163 45/101/164 5/5/165 6/7/166
f 47/117/167 46/46/168 6/6/169 7/8/170
f 48/115/171 47/117/172 7/8/173 8/9/174
f 49/113/175 48/115/176 8/9/177 9/10/178
f 50/111/179 49/113/180 9/10/181 10/11/182
f 51/109/183 50/111/184 10/11/185 11/12/186
f 42/107/187 51/109/188 11/12/189 2/2/190
f 19/20/191 53/48/192 52/47/193 21/22/194
f 17/18/195 54/49/196 53/48/197 19/20/198
f 15/16/199 55/50/200 54/49/201 17/18/202
f 14/15/203 56/51/204 55/50/205 15/16/206
f 31/34/207 57/52/208 56/51/209 14/15/210
f 29/32/211 58/53/212 57/52/213 31/34/214
f 27/30/215 59/54/216 58/53/217 29/32/218
f 25/28/219 60/55/220 59/54/221 27/30/222
f 23/26/223 61/56/224 60/55/225 25/28/226
f 21/25/227 52/47/228 61/56/229 23/26/230
f 52/47/231 53/48/232 79/73/233 80/74/234
f 53/48/235 54/49/236 78/72/237 79/73/238
f 54/49/239 55/50/240 77/71/241 78/72/242
f 55/50/243 56/51/244 76/70/245 77/71/246
f 56/51/247 57/52/248 75/69/249 76/70/250
f 57/52/251 58/53/252 74/68/253 75/69/254
f 58/53/255 59/54/256 73/67/257 74/68/258
f 59/54/259 60/55/260 82/76/261 73/67/262
f 60/55/263 61/56/264 81/75/265 82/76/266
f 61/56/267 52/47/268 80/74/269 81/75/270
f 74/68/271 73/67/272 70/64/273 69/63/274
f 75/69/275 74/68/276 69/63/277 68/62/278
f 76/70/279 75/69/280 68/62/281 67/61/282
f 77/71/283 76/70/284 67/61/285 66/60/286
f 78/72/287 77/71/288 66/60/289 65/59/290
f 79/73/291 78/72/292 65/59/293 63/58/294
f 80/74/295 79/73/296 63/58/297 62/57/298
f 81/75/299 80/74/300 62/57/301 72/66/302
f 82/76/303 81/75/304 72/66/305 71/65/306
f 73/67/307 82/76/308 71/65/309 70/64/310
f 83/77/311 84/78/312 86/79/313 85/98/314
f 84/80/315 83/116/316 101/114/317 102/81/318
f 85/98/319 86/82/320 88/83/321 87/100/322
f 87/100/323 88/84/324 90/85/325 89/102/326
f 89/102/327 90/86/328 92/87/329 91/104/330
f 91/104/331 92/88/332 94/89/333 93/106/334
f 93/106/335 94/90/336 96/91/337 95/108/338
f 95/108/339 96/92/340 98/93/341 97/110/342
f 97/110/343 98/94/344 100/95/345 99/112/346
f 99/112/347 100/96/348 102/97/349 101/114/350
f 83/77/351 85/98/352 45/101/353 46/99/354
f 85/98/355 87/100/356 44/103/357 45/101/358
f 87/100/359 89/102/360 43/105/361 44/103/362
f 89/102/363 91/104/364 42/107/365 43/105/366
f 91/104/367 93/106/368 51/109/369 42/107/370
f 93/106/371 95/108/372 50/111/373 51/109/374
f 95/108/375 97/110/376 49/113/377 50/111/378
f 97/110/379 99/112/380 48/115/381 49/113/382
f 99/112/383 101/114/384 47/117/385 48/115/386
f 101/114/387 83/116/388 46/46/389 47/117/390
f 86/119/391 84/118/392 1/127/393
f 88/120/394 86/119/395 1/127/396
f 90/121/397 88/120/398 1/127/399
f 92/122/400 90/121/401 1/127/402
f 94/123/403 92/122/404 1/127/405
f 96/124/406 94/123/407 1/127/408
f 98/125/409 96/124/410 1/127/411
f 100/126/412 98/125/413 1/127/414
f 102/128/415 100/126/416 1/127/417
f 84/118/418 102/128/419 1/127/420
