# This file uses centimeters as units for non-parametric coordinates.

mtllib SM_Puddle.mtl
g default
v -0.500000 0.000000 0.500000
v 0.000000 0.000000 0.500000
v 0.500000 0.000000 0.500000
v -0.500000 0.000000 0.000000
v 0.000000 0.033481 0.000000
v 0.500000 0.000000 0.000000
v -0.500000 0.000000 -0.500000
v 0.000000 0.000000 -0.500000
v 0.500000 0.000000 -0.500000
vt 0.000000 0.000000
vt 0.500000 0.000000
vt 1.000000 0.000000
vt 0.000000 0.500000
vt 0.500000 0.500000
vt 1.000000 0.500000
vt 0.000000 1.000000
vt 0.500000 1.000000
vt 1.000000 1.000000
vn -0.033444 0.998881 0.033444
vn 0.000000 0.999440 0.033463
vn 0.000000 1.000000 0.000000
vn -0.033463 0.999440 0.000000
vn 0.033444 0.998881 0.033444
vn 0.033463 0.999440 0.000000
vn 0.000000 0.999440 -0.033463
vn -0.033444 0.998881 -0.033444
vn 0.033444 0.998881 -0.033444
s 1
g SM_Puddle
usemtl initialShadingGroup
f 1/1/1 2/2/2 5/5/3 4/4/4
f 2/2/2 3/3/5 6/6/6 5/5/3
f 4/4/4 5/5/3 8/8/7 7/7/8
f 5/5/3 6/6/6 9/9/9 8/8/7
