# This file uses centimeters as units for non-parametric coordinates.

mtllib SM_Wall.mtl
g default
v 0.000000 0.000000 2.500000
v 0.000000 3.750000 2.500000
v 0.000000 3.750000 0.000000
v 0.000000 0.000000 0.000000
v -0.100000 3.750000 2.500000
v -0.100000 3.750000 0.000000
vt 0.375000 0.000000
vt 0.375000 0.250000
vt 0.125000 0.000000
vt 0.125000 0.250000
vt 0.000000 0.000000
vt 1.000000 0.000000
vt 1.040000 0.000013
vt 0.000000 1.000000
vn 1.000000 0.000000 0.000000
vn 1.000000 0.000000 0.000000
vn 1.000000 0.000000 0.000000
vn 1.000000 0.000000 0.000000
vn 0.000000 1.000000 0.000000
vn 0.000000 1.000000 0.000000
vn 0.000000 1.000000 0.000000
vn 0.000000 1.000000 0.000000
s off
g SM_Wall
usemtl SM_WallSG
f 4/3/1 3/4/2 2/2/3 1/1/4
f 2/5/5 3/6/6 6/7/7 5/8/8
